<svg xmlns="http://www.w3.org/2000/svg"
            xmlns:xlink="http://www.w3.org/1999/xlink"
            version="1.1" 
            baseProfile="full"
            width="1500" height="2000"
            viewBox="0 0 1500 2000">
            <title>Opart by TCI</title>
            <desc>Generiert mit Python</desc>
<rect x="0" y="0" width="100" height="100" fill="#a5a5a5" />
<rect x="20" y="20" width="60" height="60" fill="#56cfe1" />
<rect x="100" y="0" width="100" height="100" fill="#595959" />
<rect x="120" y="20" width="60" height="60" fill="#6930c3" />
<rect x="200" y="0" width="100" height="100" fill="#a5a5a5" />
<rect x="220" y="20" width="60" height="60" fill="#6930c3" />
<rect x="300" y="0" width="100" height="100" fill="#cccccc" />
<rect x="320" y="20" width="60" height="60" fill="#5390d9" />
<rect x="400" y="0" width="100" height="100" fill="#cccccc" />
<rect x="420" y="20" width="60" height="60" fill="#56cfe1" />
<rect x="500" y="0" width="100" height="100" fill="#595959" />
<rect x="520" y="20" width="60" height="60" fill="#5e60ce" />
<rect x="600" y="0" width="100" height="100" fill="#7f7f7f" />
<rect x="620" y="20" width="60" height="60" fill="#5390d9" />
<rect x="700" y="0" width="100" height="100" fill="#a5a5a5" />
<rect x="720" y="20" width="60" height="60" fill="#56cfe1" />
<rect x="800" y="0" width="100" height="100" fill="#cccccc" />
<rect x="820" y="20" width="60" height="60" fill="#4ea8de" />
<rect x="900" y="0" width="100" height="100" fill="#595959" />
<rect x="920" y="20" width="60" height="60" fill="#56cfe1" />
<rect x="1000" y="0" width="100" height="100" fill="#a5a5a5" />
<rect x="1020" y="20" width="60" height="60" fill="#5390d9" />
<rect x="1100" y="0" width="100" height="100" fill="#cccccc" />
<rect x="1120" y="20" width="60" height="60" fill="#64dfdf" />
<rect x="1200" y="0" width="100" height="100" fill="#cccccc" />
<rect x="1220" y="20" width="60" height="60" fill="#72efdd" />
<rect x="1300" y="0" width="100" height="100" fill="#595959" />
<rect x="1320" y="20" width="60" height="60" fill="#48bfe3" />
<rect x="1400" y="0" width="100" height="100" fill="#f2f2f2" />
<rect x="1420" y="20" width="60" height="60" fill="#64dfdf" />
<rect x="0" y="100" width="100" height="100" fill="#595959" />
<rect x="20" y="120" width="60" height="60" fill="#6930c3" />
<rect x="100" y="100" width="100" height="100" fill="#595959" />
<rect x="120" y="120" width="60" height="60" fill="#4ea8de" />
<rect x="200" y="100" width="100" height="100" fill="#595959" />
<rect x="220" y="120" width="60" height="60" fill="#56cfe1" />
<rect x="300" y="100" width="100" height="100" fill="#f2f2f2" />
<rect x="320" y="120" width="60" height="60" fill="#72efdd" />
<rect x="400" y="100" width="100" height="100" fill="#cccccc" />
<rect x="420" y="120" width="60" height="60" fill="#72efdd" />
<rect x="500" y="100" width="100" height="100" fill="#a5a5a5" />
<rect x="520" y="120" width="60" height="60" fill="#5e60ce" />
<rect x="600" y="100" width="100" height="100" fill="#f2f2f2" />
<rect x="620" y="120" width="60" height="60" fill="#6930c3" />
<rect x="700" y="100" width="100" height="100" fill="#cccccc" />
<rect x="720" y="120" width="60" height="60" fill="#80ffdb" />
<rect x="800" y="100" width="100" height="100" fill="#7f7f7f" />
<rect x="820" y="120" width="60" height="60" fill="#80ffdb" />
<rect x="900" y="100" width="100" height="100" fill="#7f7f7f" />
<rect x="920" y="120" width="60" height="60" fill="#6930c3" />
<rect x="1000" y="100" width="100" height="100" fill="#a5a5a5" />
<rect x="1020" y="120" width="60" height="60" fill="#6930c3" />
<rect x="1100" y="100" width="100" height="100" fill="#a5a5a5" />
<rect x="1120" y="120" width="60" height="60" fill="#5e60ce" />
<rect x="1200" y="100" width="100" height="100" fill="#f2f2f2" />
<rect x="1220" y="120" width="60" height="60" fill="#4ea8de" />
<rect x="1300" y="100" width="100" height="100" fill="#a5a5a5" />
<rect x="1320" y="120" width="60" height="60" fill="#80ffdb" />
<rect x="1400" y="100" width="100" height="100" fill="#7f7f7f" />
<rect x="1420" y="120" width="60" height="60" fill="#4ea8de" />
<rect x="0" y="200" width="100" height="100" fill="#595959" />
<rect x="20" y="220" width="60" height="60" fill="#72efdd" />
<rect x="100" y="200" width="100" height="100" fill="#cccccc" />
<rect x="120" y="220" width="60" height="60" fill="#5390d9" />
<rect x="200" y="200" width="100" height="100" fill="#7f7f7f" />
<rect x="220" y="220" width="60" height="60" fill="#48bfe3" />
<rect x="300" y="200" width="100" height="100" fill="#7f7f7f" />
<rect x="320" y="220" width="60" height="60" fill="#7400b8" />
<rect x="400" y="200" width="100" height="100" fill="#f2f2f2" />
<rect x="420" y="220" width="60" height="60" fill="#56cfe1" />
<rect x="500" y="200" width="100" height="100" fill="#a5a5a5" />
<rect x="520" y="220" width="60" height="60" fill="#56cfe1" />
<rect x="600" y="200" width="100" height="100" fill="#595959" />
<rect x="620" y="220" width="60" height="60" fill="#4ea8de" />
<rect x="700" y="200" width="100" height="100" fill="#cccccc" />
<rect x="720" y="220" width="60" height="60" fill="#4ea8de" />
<rect x="800" y="200" width="100" height="100" fill="#f2f2f2" />
<rect x="820" y="220" width="60" height="60" fill="#7400b8" />
<rect x="900" y="200" width="100" height="100" fill="#a5a5a5" />
<rect x="920" y="220" width="60" height="60" fill="#56cfe1" />
<rect x="1000" y="200" width="100" height="100" fill="#cccccc" />
<rect x="1020" y="220" width="60" height="60" fill="#5390d9" />
<rect x="1100" y="200" width="100" height="100" fill="#f2f2f2" />
<rect x="1120" y="220" width="60" height="60" fill="#72efdd" />
<rect x="1200" y="200" width="100" height="100" fill="#a5a5a5" />
<rect x="1220" y="220" width="60" height="60" fill="#56cfe1" />
<rect x="1300" y="200" width="100" height="100" fill="#595959" />
<rect x="1320" y="220" width="60" height="60" fill="#56cfe1" />
<rect x="1400" y="200" width="100" height="100" fill="#7f7f7f" />
<rect x="1420" y="220" width="60" height="60" fill="#72efdd" />
<rect x="0" y="300" width="100" height="100" fill="#a5a5a5" />
<rect x="20" y="320" width="60" height="60" fill="#64dfdf" />
<rect x="100" y="300" width="100" height="100" fill="#cccccc" />
<rect x="120" y="320" width="60" height="60" fill="#7400b8" />
<rect x="200" y="300" width="100" height="100" fill="#7f7f7f" />
<rect x="220" y="320" width="60" height="60" fill="#80ffdb" />
<rect x="300" y="300" width="100" height="100" fill="#7f7f7f" />
<rect x="320" y="320" width="60" height="60" fill="#48bfe3" />
<rect x="400" y="300" width="100" height="100" fill="#7f7f7f" />
<rect x="420" y="320" width="60" height="60" fill="#64dfdf" />
<rect x="500" y="300" width="100" height="100" fill="#a5a5a5" />
<rect x="520" y="320" width="60" height="60" fill="#5390d9" />
<rect x="600" y="300" width="100" height="100" fill="#f2f2f2" />
<rect x="620" y="320" width="60" height="60" fill="#4ea8de" />
<rect x="700" y="300" width="100" height="100" fill="#a5a5a5" />
<rect x="720" y="320" width="60" height="60" fill="#6930c3" />
<rect x="800" y="300" width="100" height="100" fill="#cccccc" />
<rect x="820" y="320" width="60" height="60" fill="#4ea8de" />
<rect x="900" y="300" width="100" height="100" fill="#7f7f7f" />
<rect x="920" y="320" width="60" height="60" fill="#5e60ce" />
<rect x="1000" y="300" width="100" height="100" fill="#cccccc" />
<rect x="1020" y="320" width="60" height="60" fill="#7400b8" />
<rect x="1100" y="300" width="100" height="100" fill="#f2f2f2" />
<rect x="1120" y="320" width="60" height="60" fill="#56cfe1" />
<rect x="1200" y="300" width="100" height="100" fill="#7f7f7f" />
<rect x="1220" y="320" width="60" height="60" fill="#7400b8" />
<rect x="1300" y="300" width="100" height="100" fill="#cccccc" />
<rect x="1320" y="320" width="60" height="60" fill="#48bfe3" />
<rect x="1400" y="300" width="100" height="100" fill="#595959" />
<rect x="1420" y="320" width="60" height="60" fill="#48bfe3" />
<rect x="0" y="400" width="100" height="100" fill="#595959" />
<rect x="20" y="420" width="60" height="60" fill="#80ffdb" />
<rect x="100" y="400" width="100" height="100" fill="#cccccc" />
<rect x="120" y="420" width="60" height="60" fill="#5390d9" />
<rect x="200" y="400" width="100" height="100" fill="#7f7f7f" />
<rect x="220" y="420" width="60" height="60" fill="#56cfe1" />
<rect x="300" y="400" width="100" height="100" fill="#595959" />
<rect x="320" y="420" width="60" height="60" fill="#56cfe1" />
<rect x="400" y="400" width="100" height="100" fill="#7f7f7f" />
<rect x="420" y="420" width="60" height="60" fill="#64dfdf" />
<rect x="500" y="400" width="100" height="100" fill="#f2f2f2" />
<rect x="520" y="420" width="60" height="60" fill="#80ffdb" />
<rect x="600" y="400" width="100" height="100" fill="#a5a5a5" />
<rect x="620" y="420" width="60" height="60" fill="#4ea8de" />
<rect x="700" y="400" width="100" height="100" fill="#f2f2f2" />
<rect x="720" y="420" width="60" height="60" fill="#4ea8de" />
<rect x="800" y="400" width="100" height="100" fill="#7f7f7f" />
<rect x="820" y="420" width="60" height="60" fill="#5390d9" />
<rect x="900" y="400" width="100" height="100" fill="#f2f2f2" />
<rect x="920" y="420" width="60" height="60" fill="#4ea8de" />
<rect x="1000" y="400" width="100" height="100" fill="#595959" />
<rect x="1020" y="420" width="60" height="60" fill="#4ea8de" />
<rect x="1100" y="400" width="100" height="100" fill="#595959" />
<rect x="1120" y="420" width="60" height="60" fill="#56cfe1" />
<rect x="1200" y="400" width="100" height="100" fill="#cccccc" />
<rect x="1220" y="420" width="60" height="60" fill="#5e60ce" />
<rect x="1300" y="400" width="100" height="100" fill="#a5a5a5" />
<rect x="1320" y="420" width="60" height="60" fill="#64dfdf" />
<rect x="1400" y="400" width="100" height="100" fill="#a5a5a5" />
<rect x="1420" y="420" width="60" height="60" fill="#5e60ce" />
<rect x="0" y="500" width="100" height="100" fill="#7f7f7f" />
<rect x="20" y="520" width="60" height="60" fill="#7400b8" />
<rect x="100" y="500" width="100" height="100" fill="#7f7f7f" />
<rect x="120" y="520" width="60" height="60" fill="#4ea8de" />
<rect x="200" y="500" width="100" height="100" fill="#595959" />
<rect x="220" y="520" width="60" height="60" fill="#7400b8" />
<rect x="300" y="500" width="100" height="100" fill="#7f7f7f" />
<rect x="320" y="520" width="60" height="60" fill="#5e60ce" />
<rect x="400" y="500" width="100" height="100" fill="#cccccc" />
<rect x="420" y="520" width="60" height="60" fill="#5390d9" />
<rect x="500" y="500" width="100" height="100" fill="#f2f2f2" />
<rect x="520" y="520" width="60" height="60" fill="#6930c3" />
<rect x="600" y="500" width="100" height="100" fill="#f2f2f2" />
<rect x="620" y="520" width="60" height="60" fill="#5e60ce" />
<rect x="700" y="500" width="100" height="100" fill="#595959" />
<rect x="720" y="520" width="60" height="60" fill="#5e60ce" />
<rect x="800" y="500" width="100" height="100" fill="#f2f2f2" />
<rect x="820" y="520" width="60" height="60" fill="#5390d9" />
<rect x="900" y="500" width="100" height="100" fill="#cccccc" />
<rect x="920" y="520" width="60" height="60" fill="#80ffdb" />
<rect x="1000" y="500" width="100" height="100" fill="#f2f2f2" />
<rect x="1020" y="520" width="60" height="60" fill="#6930c3" />
<rect x="1100" y="500" width="100" height="100" fill="#595959" />
<rect x="1120" y="520" width="60" height="60" fill="#5e60ce" />
<rect x="1200" y="500" width="100" height="100" fill="#cccccc" />
<rect x="1220" y="520" width="60" height="60" fill="#72efdd" />
<rect x="1300" y="500" width="100" height="100" fill="#595959" />
<rect x="1320" y="520" width="60" height="60" fill="#5390d9" />
<rect x="1400" y="500" width="100" height="100" fill="#7f7f7f" />
<rect x="1420" y="520" width="60" height="60" fill="#64dfdf" />
<rect x="0" y="600" width="100" height="100" fill="#f2f2f2" />
<rect x="20" y="620" width="60" height="60" fill="#4ea8de" />
<rect x="100" y="600" width="100" height="100" fill="#595959" />
<rect x="120" y="620" width="60" height="60" fill="#48bfe3" />
<rect x="200" y="600" width="100" height="100" fill="#f2f2f2" />
<rect x="220" y="620" width="60" height="60" fill="#5e60ce" />
<rect x="300" y="600" width="100" height="100" fill="#7f7f7f" />
<rect x="320" y="620" width="60" height="60" fill="#56cfe1" />
<rect x="400" y="600" width="100" height="100" fill="#a5a5a5" />
<rect x="420" y="620" width="60" height="60" fill="#80ffdb" />
<rect x="500" y="600" width="100" height="100" fill="#7f7f7f" />
<rect x="520" y="620" width="60" height="60" fill="#5390d9" />
<rect x="600" y="600" width="100" height="100" fill="#f2f2f2" />
<rect x="620" y="620" width="60" height="60" fill="#5e60ce" />
<rect x="700" y="600" width="100" height="100" fill="#f2f2f2" />
<rect x="720" y="620" width="60" height="60" fill="#5e60ce" />
<rect x="800" y="600" width="100" height="100" fill="#f2f2f2" />
<rect x="820" y="620" width="60" height="60" fill="#72efdd" />
<rect x="900" y="600" width="100" height="100" fill="#a5a5a5" />
<rect x="920" y="620" width="60" height="60" fill="#72efdd" />
<rect x="1000" y="600" width="100" height="100" fill="#a5a5a5" />
<rect x="1020" y="620" width="60" height="60" fill="#7400b8" />
<rect x="1100" y="600" width="100" height="100" fill="#7f7f7f" />
<rect x="1120" y="620" width="60" height="60" fill="#48bfe3" />
<rect x="1200" y="600" width="100" height="100" fill="#cccccc" />
<rect x="1220" y="620" width="60" height="60" fill="#64dfdf" />
<rect x="1300" y="600" width="100" height="100" fill="#cccccc" />
<rect x="1320" y="620" width="60" height="60" fill="#7400b8" />
<rect x="1400" y="600" width="100" height="100" fill="#f2f2f2" />
<rect x="1420" y="620" width="60" height="60" fill="#5390d9" />
<rect x="0" y="700" width="100" height="100" fill="#a5a5a5" />
<rect x="20" y="720" width="60" height="60" fill="#80ffdb" />
<rect x="100" y="700" width="100" height="100" fill="#a5a5a5" />
<rect x="120" y="720" width="60" height="60" fill="#4ea8de" />
<rect x="200" y="700" width="100" height="100" fill="#595959" />
<rect x="220" y="720" width="60" height="60" fill="#72efdd" />
<rect x="300" y="700" width="100" height="100" fill="#595959" />
<rect x="320" y="720" width="60" height="60" fill="#48bfe3" />
<rect x="400" y="700" width="100" height="100" fill="#f2f2f2" />
<rect x="420" y="720" width="60" height="60" fill="#56cfe1" />
<rect x="500" y="700" width="100" height="100" fill="#f2f2f2" />
<rect x="520" y="720" width="60" height="60" fill="#48bfe3" />
<rect x="600" y="700" width="100" height="100" fill="#a5a5a5" />
<rect x="620" y="720" width="60" height="60" fill="#6930c3" />
<rect x="700" y="700" width="100" height="100" fill="#cccccc" />
<rect x="720" y="720" width="60" height="60" fill="#6930c3" />
<rect x="800" y="700" width="100" height="100" fill="#a5a5a5" />
<rect x="820" y="720" width="60" height="60" fill="#72efdd" />
<rect x="900" y="700" width="100" height="100" fill="#a5a5a5" />
<rect x="920" y="720" width="60" height="60" fill="#5390d9" />
<rect x="1000" y="700" width="100" height="100" fill="#f2f2f2" />
<rect x="1020" y="720" width="60" height="60" fill="#80ffdb" />
<rect x="1100" y="700" width="100" height="100" fill="#a5a5a5" />
<rect x="1120" y="720" width="60" height="60" fill="#56cfe1" />
<rect x="1200" y="700" width="100" height="100" fill="#a5a5a5" />
<rect x="1220" y="720" width="60" height="60" fill="#72efdd" />
<rect x="1300" y="700" width="100" height="100" fill="#a5a5a5" />
<rect x="1320" y="720" width="60" height="60" fill="#7400b8" />
<rect x="1400" y="700" width="100" height="100" fill="#a5a5a5" />
<rect x="1420" y="720" width="60" height="60" fill="#4ea8de" />
<rect x="0" y="800" width="100" height="100" fill="#7f7f7f" />
<rect x="20" y="820" width="60" height="60" fill="#56cfe1" />
<rect x="100" y="800" width="100" height="100" fill="#f2f2f2" />
<rect x="120" y="820" width="60" height="60" fill="#64dfdf" />
<rect x="200" y="800" width="100" height="100" fill="#cccccc" />
<rect x="220" y="820" width="60" height="60" fill="#6930c3" />
<rect x="300" y="800" width="100" height="100" fill="#cccccc" />
<rect x="320" y="820" width="60" height="60" fill="#4ea8de" />
<rect x="400" y="800" width="100" height="100" fill="#7f7f7f" />
<rect x="420" y="820" width="60" height="60" fill="#5e60ce" />
<rect x="500" y="800" width="100" height="100" fill="#a5a5a5" />
<rect x="520" y="820" width="60" height="60" fill="#5e60ce" />
<rect x="600" y="800" width="100" height="100" fill="#cccccc" />
<rect x="620" y="820" width="60" height="60" fill="#5390d9" />
<rect x="700" y="800" width="100" height="100" fill="#f2f2f2" />
<rect x="720" y="820" width="60" height="60" fill="#72efdd" />
<rect x="800" y="800" width="100" height="100" fill="#cccccc" />
<rect x="820" y="820" width="60" height="60" fill="#6930c3" />
<rect x="900" y="800" width="100" height="100" fill="#a5a5a5" />
<rect x="920" y="820" width="60" height="60" fill="#72efdd" />
<rect x="1000" y="800" width="100" height="100" fill="#f2f2f2" />
<rect x="1020" y="820" width="60" height="60" fill="#6930c3" />
<rect x="1100" y="800" width="100" height="100" fill="#f2f2f2" />
<rect x="1120" y="820" width="60" height="60" fill="#5390d9" />
<rect x="1200" y="800" width="100" height="100" fill="#7f7f7f" />
<rect x="1220" y="820" width="60" height="60" fill="#80ffdb" />
<rect x="1300" y="800" width="100" height="100" fill="#cccccc" />
<rect x="1320" y="820" width="60" height="60" fill="#56cfe1" />
<rect x="1400" y="800" width="100" height="100" fill="#7f7f7f" />
<rect x="1420" y="820" width="60" height="60" fill="#6930c3" />
<rect x="0" y="900" width="100" height="100" fill="#7f7f7f" />
<rect x="20" y="920" width="60" height="60" fill="#4ea8de" />
<rect x="100" y="900" width="100" height="100" fill="#f2f2f2" />
<rect x="120" y="920" width="60" height="60" fill="#72efdd" />
<rect x="200" y="900" width="100" height="100" fill="#7f7f7f" />
<rect x="220" y="920" width="60" height="60" fill="#64dfdf" />
<rect x="300" y="900" width="100" height="100" fill="#7f7f7f" />
<rect x="320" y="920" width="60" height="60" fill="#80ffdb" />
<rect x="400" y="900" width="100" height="100" fill="#cccccc" />
<rect x="420" y="920" width="60" height="60" fill="#80ffdb" />
<rect x="500" y="900" width="100" height="100" fill="#595959" />
<rect x="520" y="920" width="60" height="60" fill="#7400b8" />
<rect x="600" y="900" width="100" height="100" fill="#7f7f7f" />
<rect x="620" y="920" width="60" height="60" fill="#7400b8" />
<rect x="700" y="900" width="100" height="100" fill="#595959" />
<rect x="720" y="920" width="60" height="60" fill="#80ffdb" />
<rect x="800" y="900" width="100" height="100" fill="#7f7f7f" />
<rect x="820" y="920" width="60" height="60" fill="#6930c3" />
<rect x="900" y="900" width="100" height="100" fill="#f2f2f2" />
<rect x="920" y="920" width="60" height="60" fill="#56cfe1" />
<rect x="1000" y="900" width="100" height="100" fill="#595959" />
<rect x="1020" y="920" width="60" height="60" fill="#4ea8de" />
<rect x="1100" y="900" width="100" height="100" fill="#f2f2f2" />
<rect x="1120" y="920" width="60" height="60" fill="#4ea8de" />
<rect x="1200" y="900" width="100" height="100" fill="#595959" />
<rect x="1220" y="920" width="60" height="60" fill="#72efdd" />
<rect x="1300" y="900" width="100" height="100" fill="#7f7f7f" />
<rect x="1320" y="920" width="60" height="60" fill="#48bfe3" />
<rect x="1400" y="900" width="100" height="100" fill="#a5a5a5" />
<rect x="1420" y="920" width="60" height="60" fill="#7400b8" />
<rect x="0" y="1000" width="100" height="100" fill="#cccccc" />
<rect x="20" y="1020" width="60" height="60" fill="#64dfdf" />
<rect x="100" y="1000" width="100" height="100" fill="#f2f2f2" />
<rect x="120" y="1020" width="60" height="60" fill="#6930c3" />
<rect x="200" y="1000" width="100" height="100" fill="#7f7f7f" />
<rect x="220" y="1020" width="60" height="60" fill="#80ffdb" />
<rect x="300" y="1000" width="100" height="100" fill="#cccccc" />
<rect x="320" y="1020" width="60" height="60" fill="#5e60ce" />
<rect x="400" y="1000" width="100" height="100" fill="#f2f2f2" />
<rect x="420" y="1020" width="60" height="60" fill="#80ffdb" />
<rect x="500" y="1000" width="100" height="100" fill="#cccccc" />
<rect x="520" y="1020" width="60" height="60" fill="#7400b8" />
<rect x="600" y="1000" width="100" height="100" fill="#cccccc" />
<rect x="620" y="1020" width="60" height="60" fill="#6930c3" />
<rect x="700" y="1000" width="100" height="100" fill="#a5a5a5" />
<rect x="720" y="1020" width="60" height="60" fill="#48bfe3" />
<rect x="800" y="1000" width="100" height="100" fill="#a5a5a5" />
<rect x="820" y="1020" width="60" height="60" fill="#4ea8de" />
<rect x="900" y="1000" width="100" height="100" fill="#cccccc" />
<rect x="920" y="1020" width="60" height="60" fill="#7400b8" />
<rect x="1000" y="1000" width="100" height="100" fill="#a5a5a5" />
<rect x="1020" y="1020" width="60" height="60" fill="#6930c3" />
<rect x="1100" y="1000" width="100" height="100" fill="#7f7f7f" />
<rect x="1120" y="1020" width="60" height="60" fill="#5390d9" />
<rect x="1200" y="1000" width="100" height="100" fill="#f2f2f2" />
<rect x="1220" y="1020" width="60" height="60" fill="#64dfdf" />
<rect x="1300" y="1000" width="100" height="100" fill="#f2f2f2" />
<rect x="1320" y="1020" width="60" height="60" fill="#64dfdf" />
<rect x="1400" y="1000" width="100" height="100" fill="#cccccc" />
<rect x="1420" y="1020" width="60" height="60" fill="#56cfe1" />
<rect x="0" y="1100" width="100" height="100" fill="#f2f2f2" />
<rect x="20" y="1120" width="60" height="60" fill="#72efdd" />
<rect x="100" y="1100" width="100" height="100" fill="#7f7f7f" />
<rect x="120" y="1120" width="60" height="60" fill="#72efdd" />
<rect x="200" y="1100" width="100" height="100" fill="#595959" />
<rect x="220" y="1120" width="60" height="60" fill="#5390d9" />
<rect x="300" y="1100" width="100" height="100" fill="#595959" />
<rect x="320" y="1120" width="60" height="60" fill="#80ffdb" />
<rect x="400" y="1100" width="100" height="100" fill="#cccccc" />
<rect x="420" y="1120" width="60" height="60" fill="#64dfdf" />
<rect x="500" y="1100" width="100" height="100" fill="#7f7f7f" />
<rect x="520" y="1120" width="60" height="60" fill="#7400b8" />
<rect x="600" y="1100" width="100" height="100" fill="#7f7f7f" />
<rect x="620" y="1120" width="60" height="60" fill="#4ea8de" />
<rect x="700" y="1100" width="100" height="100" fill="#f2f2f2" />
<rect x="720" y="1120" width="60" height="60" fill="#7400b8" />
<rect x="800" y="1100" width="100" height="100" fill="#595959" />
<rect x="820" y="1120" width="60" height="60" fill="#56cfe1" />
<rect x="900" y="1100" width="100" height="100" fill="#7f7f7f" />
<rect x="920" y="1120" width="60" height="60" fill="#7400b8" />
<rect x="1000" y="1100" width="100" height="100" fill="#595959" />
<rect x="1020" y="1120" width="60" height="60" fill="#80ffdb" />
<rect x="1100" y="1100" width="100" height="100" fill="#f2f2f2" />
<rect x="1120" y="1120" width="60" height="60" fill="#6930c3" />
<rect x="1200" y="1100" width="100" height="100" fill="#f2f2f2" />
<rect x="1220" y="1120" width="60" height="60" fill="#72efdd" />
<rect x="1300" y="1100" width="100" height="100" fill="#cccccc" />
<rect x="1320" y="1120" width="60" height="60" fill="#5e60ce" />
<rect x="1400" y="1100" width="100" height="100" fill="#595959" />
<rect x="1420" y="1120" width="60" height="60" fill="#64dfdf" />
<rect x="0" y="1200" width="100" height="100" fill="#7f7f7f" />
<rect x="20" y="1220" width="60" height="60" fill="#7400b8" />
<rect x="100" y="1200" width="100" height="100" fill="#7f7f7f" />
<rect x="120" y="1220" width="60" height="60" fill="#5390d9" />
<rect x="200" y="1200" width="100" height="100" fill="#7f7f7f" />
<rect x="220" y="1220" width="60" height="60" fill="#56cfe1" />
<rect x="300" y="1200" width="100" height="100" fill="#595959" />
<rect x="320" y="1220" width="60" height="60" fill="#64dfdf" />
<rect x="400" y="1200" width="100" height="100" fill="#7f7f7f" />
<rect x="420" y="1220" width="60" height="60" fill="#72efdd" />
<rect x="500" y="1200" width="100" height="100" fill="#7f7f7f" />
<rect x="520" y="1220" width="60" height="60" fill="#64dfdf" />
<rect x="600" y="1200" width="100" height="100" fill="#f2f2f2" />
<rect x="620" y="1220" width="60" height="60" fill="#6930c3" />
<rect x="700" y="1200" width="100" height="100" fill="#f2f2f2" />
<rect x="720" y="1220" width="60" height="60" fill="#80ffdb" />
<rect x="800" y="1200" width="100" height="100" fill="#f2f2f2" />
<rect x="820" y="1220" width="60" height="60" fill="#48bfe3" />
<rect x="900" y="1200" width="100" height="100" fill="#f2f2f2" />
<rect x="920" y="1220" width="60" height="60" fill="#48bfe3" />
<rect x="1000" y="1200" width="100" height="100" fill="#a5a5a5" />
<rect x="1020" y="1220" width="60" height="60" fill="#5390d9" />
<rect x="1100" y="1200" width="100" height="100" fill="#595959" />
<rect x="1120" y="1220" width="60" height="60" fill="#80ffdb" />
<rect x="1200" y="1200" width="100" height="100" fill="#7f7f7f" />
<rect x="1220" y="1220" width="60" height="60" fill="#48bfe3" />
<rect x="1300" y="1200" width="100" height="100" fill="#cccccc" />
<rect x="1320" y="1220" width="60" height="60" fill="#56cfe1" />
<rect x="1400" y="1200" width="100" height="100" fill="#595959" />
<rect x="1420" y="1220" width="60" height="60" fill="#5e60ce" />
<rect x="0" y="1300" width="100" height="100" fill="#7f7f7f" />
<rect x="20" y="1320" width="60" height="60" fill="#4ea8de" />
<rect x="100" y="1300" width="100" height="100" fill="#595959" />
<rect x="120" y="1320" width="60" height="60" fill="#5e60ce" />
<rect x="200" y="1300" width="100" height="100" fill="#a5a5a5" />
<rect x="220" y="1320" width="60" height="60" fill="#5390d9" />
<rect x="300" y="1300" width="100" height="100" fill="#f2f2f2" />
<rect x="320" y="1320" width="60" height="60" fill="#5390d9" />
<rect x="400" y="1300" width="100" height="100" fill="#cccccc" />
<rect x="420" y="1320" width="60" height="60" fill="#4ea8de" />
<rect x="500" y="1300" width="100" height="100" fill="#a5a5a5" />
<rect x="520" y="1320" width="60" height="60" fill="#7400b8" />
<rect x="600" y="1300" width="100" height="100" fill="#a5a5a5" />
<rect x="620" y="1320" width="60" height="60" fill="#72efdd" />
<rect x="700" y="1300" width="100" height="100" fill="#a5a5a5" />
<rect x="720" y="1320" width="60" height="60" fill="#80ffdb" />
<rect x="800" y="1300" width="100" height="100" fill="#cccccc" />
<rect x="820" y="1320" width="60" height="60" fill="#5e60ce" />
<rect x="900" y="1300" width="100" height="100" fill="#a5a5a5" />
<rect x="920" y="1320" width="60" height="60" fill="#56cfe1" />
<rect x="1000" y="1300" width="100" height="100" fill="#cccccc" />
<rect x="1020" y="1320" width="60" height="60" fill="#5390d9" />
<rect x="1100" y="1300" width="100" height="100" fill="#f2f2f2" />
<rect x="1120" y="1320" width="60" height="60" fill="#64dfdf" />
<rect x="1200" y="1300" width="100" height="100" fill="#7f7f7f" />
<rect x="1220" y="1320" width="60" height="60" fill="#5390d9" />
<rect x="1300" y="1300" width="100" height="100" fill="#cccccc" />
<rect x="1320" y="1320" width="60" height="60" fill="#4ea8de" />
<rect x="1400" y="1300" width="100" height="100" fill="#7f7f7f" />
<rect x="1420" y="1320" width="60" height="60" fill="#6930c3" />
<rect x="0" y="1400" width="100" height="100" fill="#595959" />
<rect x="20" y="1420" width="60" height="60" fill="#56cfe1" />
<rect x="100" y="1400" width="100" height="100" fill="#f2f2f2" />
<rect x="120" y="1420" width="60" height="60" fill="#64dfdf" />
<rect x="200" y="1400" width="100" height="100" fill="#a5a5a5" />
<rect x="220" y="1420" width="60" height="60" fill="#6930c3" />
<rect x="300" y="1400" width="100" height="100" fill="#a5a5a5" />
<rect x="320" y="1420" width="60" height="60" fill="#5390d9" />
<rect x="400" y="1400" width="100" height="100" fill="#7f7f7f" />
<rect x="420" y="1420" width="60" height="60" fill="#4ea8de" />
<rect x="500" y="1400" width="100" height="100" fill="#595959" />
<rect x="520" y="1420" width="60" height="60" fill="#5e60ce" />
<rect x="600" y="1400" width="100" height="100" fill="#7f7f7f" />
<rect x="620" y="1420" width="60" height="60" fill="#56cfe1" />
<rect x="700" y="1400" width="100" height="100" fill="#7f7f7f" />
<rect x="720" y="1420" width="60" height="60" fill="#48bfe3" />
<rect x="800" y="1400" width="100" height="100" fill="#a5a5a5" />
<rect x="820" y="1420" width="60" height="60" fill="#5e60ce" />
<rect x="900" y="1400" width="100" height="100" fill="#a5a5a5" />
<rect x="920" y="1420" width="60" height="60" fill="#5e60ce" />
<rect x="1000" y="1400" width="100" height="100" fill="#595959" />
<rect x="1020" y="1420" width="60" height="60" fill="#80ffdb" />
<rect x="1100" y="1400" width="100" height="100" fill="#cccccc" />
<rect x="1120" y="1420" width="60" height="60" fill="#5390d9" />
<rect x="1200" y="1400" width="100" height="100" fill="#cccccc" />
<rect x="1220" y="1420" width="60" height="60" fill="#5390d9" />
<rect x="1300" y="1400" width="100" height="100" fill="#cccccc" />
<rect x="1320" y="1420" width="60" height="60" fill="#7400b8" />
<rect x="1400" y="1400" width="100" height="100" fill="#f2f2f2" />
<rect x="1420" y="1420" width="60" height="60" fill="#72efdd" />
<text x="0" y="1620" style="font: bold 30px sans-serif;">Forground Palette (purple to azure)</text>
<rect x="0" y="1650" width="100" height="100" fill="#7400b8"/><text x="20" y="1770" style="font: 12px sans-serif;">#7400b8</text>
<rect x="100" y="1650" width="100" height="100" fill="#6930c3"/><text x="120" y="1770" style="font: 12px sans-serif;">#6930c3</text>
<rect x="200" y="1650" width="100" height="100" fill="#5e60ce"/><text x="220" y="1770" style="font: 12px sans-serif;">#5e60ce</text>
<rect x="300" y="1650" width="100" height="100" fill="#5390d9"/><text x="320" y="1770" style="font: 12px sans-serif;">#5390d9</text>
<rect x="400" y="1650" width="100" height="100" fill="#4ea8de"/><text x="420" y="1770" style="font: 12px sans-serif;">#4ea8de</text>
<rect x="500" y="1650" width="100" height="100" fill="#48bfe3"/><text x="520" y="1770" style="font: 12px sans-serif;">#48bfe3</text>
<rect x="600" y="1650" width="100" height="100" fill="#56cfe1"/><text x="620" y="1770" style="font: 12px sans-serif;">#56cfe1</text>
<rect x="700" y="1650" width="100" height="100" fill="#64dfdf"/><text x="720" y="1770" style="font: 12px sans-serif;">#64dfdf</text>
<rect x="800" y="1650" width="100" height="100" fill="#72efdd"/><text x="820" y="1770" style="font: 12px sans-serif;">#72efdd</text>
<rect x="900" y="1650" width="100" height="100" fill="#80ffdb"/><text x="920" y="1770" style="font: 12px sans-serif;">#80ffdb</text>

<text x="0" y="1820" style="font: bold 30px sans-serif;">Background Palette (background_palette_2)</text>
<rect x="0" y="1850" width="100" height="100" fill="#595959"/><text x="20" y="1970" style="font: 12px sans-serif;">#595959</text>
<rect x="100" y="1850" width="100" height="100" fill="#7f7f7f"/><text x="120" y="1970" style="font: 12px sans-serif;">#7f7f7f</text>
<rect x="200" y="1850" width="100" height="100" fill="#a5a5a5"/><text x="220" y="1970" style="font: 12px sans-serif;">#a5a5a5</text>
<rect x="300" y="1850" width="100" height="100" fill="#cccccc"/><text x="320" y="1970" style="font: 12px sans-serif;">#cccccc</text>
<rect x="400" y="1850" width="100" height="100" fill="#f2f2f2"/><text x="420" y="1970" style="font: 12px sans-serif;">#f2f2f2</text>
</svg>