<svg xmlns="http://www.w3.org/2000/svg"
            xmlns:xlink="http://www.w3.org/1999/xlink"
            version="1.1" 
            baseProfile="full"
            width="1500" height="2000"
            viewBox="0 0 1500 2000">
            <title>Opart by TCI</title>
            <desc>Generiert mit Python</desc>
<rect x="0" y="0" width="100" height="100" fill="#18261f" />
<rect x="20" y="20" width="60" height="60" fill="#b9fbc0" />
<rect x="100" y="0" width="100" height="100" fill="#a7abad" />
<rect x="120" y="20" width="60" height="60" fill="#b9fbc0" />
<rect x="200" y="0" width="100" height="100" fill="#18261f" />
<rect x="220" y="20" width="60" height="60" fill="#ffcfd2" />
<rect x="300" y="0" width="100" height="100" fill="#a7abad" />
<rect x="320" y="20" width="60" height="60" fill="#fde4cf" />
<rect x="400" y="0" width="100" height="100" fill="#18261f" />
<rect x="420" y="20" width="60" height="60" fill="#90dbf4" />
<rect x="500" y="0" width="100" height="100" fill="#18261f" />
<rect x="520" y="20" width="60" height="60" fill="#cfbaf0" />
<rect x="600" y="0" width="100" height="100" fill="#a7abad" />
<rect x="620" y="20" width="60" height="60" fill="#8eecf5" />
<rect x="700" y="0" width="100" height="100" fill="#b5beba" />
<rect x="720" y="20" width="60" height="60" fill="#cfbaf0" />
<rect x="800" y="0" width="100" height="100" fill="#766d69" />
<rect x="820" y="20" width="60" height="60" fill="#cfbaf0" />
<rect x="900" y="0" width="100" height="100" fill="#766d69" />
<rect x="920" y="20" width="60" height="60" fill="#a3c4f3" />
<rect x="1000" y="0" width="100" height="100" fill="#a7abad" />
<rect x="1020" y="20" width="60" height="60" fill="#a3c4f3" />
<rect x="1100" y="0" width="100" height="100" fill="#18261f" />
<rect x="1120" y="20" width="60" height="60" fill="#90dbf4" />
<rect x="1200" y="0" width="100" height="100" fill="#a7abad" />
<rect x="1220" y="20" width="60" height="60" fill="#ffcfd2" />
<rect x="1300" y="0" width="100" height="100" fill="#9ba29b" />
<rect x="1320" y="20" width="60" height="60" fill="#98f5e1" />
<rect x="1400" y="0" width="100" height="100" fill="#b5beba" />
<rect x="1420" y="20" width="60" height="60" fill="#8eecf5" />
<rect x="0" y="100" width="100" height="100" fill="#9ba29b" />
<rect x="20" y="120" width="60" height="60" fill="#f1c0e8" />
<rect x="100" y="100" width="100" height="100" fill="#a7abad" />
<rect x="120" y="120" width="60" height="60" fill="#b9fbc0" />
<rect x="200" y="100" width="100" height="100" fill="#b5beba" />
<rect x="220" y="120" width="60" height="60" fill="#a3c4f3" />
<rect x="300" y="100" width="100" height="100" fill="#b5beba" />
<rect x="320" y="120" width="60" height="60" fill="#98f5e1" />
<rect x="400" y="100" width="100" height="100" fill="#a7abad" />
<rect x="420" y="120" width="60" height="60" fill="#b9fbc0" />
<rect x="500" y="100" width="100" height="100" fill="#9ba29b" />
<rect x="520" y="120" width="60" height="60" fill="#ffcfd2" />
<rect x="600" y="100" width="100" height="100" fill="#a7abad" />
<rect x="620" y="120" width="60" height="60" fill="#ffcfd2" />
<rect x="700" y="100" width="100" height="100" fill="#a7abad" />
<rect x="720" y="120" width="60" height="60" fill="#90dbf4" />
<rect x="800" y="100" width="100" height="100" fill="#a7abad" />
<rect x="820" y="120" width="60" height="60" fill="#a3c4f3" />
<rect x="900" y="100" width="100" height="100" fill="#9ba29b" />
<rect x="920" y="120" width="60" height="60" fill="#f1c0e8" />
<rect x="1000" y="100" width="100" height="100" fill="#9ba29b" />
<rect x="1020" y="120" width="60" height="60" fill="#a3c4f3" />
<rect x="1100" y="100" width="100" height="100" fill="#a7abad" />
<rect x="1120" y="120" width="60" height="60" fill="#cfbaf0" />
<rect x="1200" y="100" width="100" height="100" fill="#b5beba" />
<rect x="1220" y="120" width="60" height="60" fill="#b9fbc0" />
<rect x="1300" y="100" width="100" height="100" fill="#9ba29b" />
<rect x="1320" y="120" width="60" height="60" fill="#ffcfd2" />
<rect x="1400" y="100" width="100" height="100" fill="#9ba29b" />
<rect x="1420" y="120" width="60" height="60" fill="#a3c4f3" />
<rect x="0" y="200" width="100" height="100" fill="#9ba29b" />
<rect x="20" y="220" width="60" height="60" fill="#98f5e1" />
<rect x="100" y="200" width="100" height="100" fill="#b5beba" />
<rect x="120" y="220" width="60" height="60" fill="#ffcfd2" />
<rect x="200" y="200" width="100" height="100" fill="#18261f" />
<rect x="220" y="220" width="60" height="60" fill="#cfbaf0" />
<rect x="300" y="200" width="100" height="100" fill="#9ba29b" />
<rect x="320" y="220" width="60" height="60" fill="#cfbaf0" />
<rect x="400" y="200" width="100" height="100" fill="#a7abad" />
<rect x="420" y="220" width="60" height="60" fill="#f1c0e8" />
<rect x="500" y="200" width="100" height="100" fill="#18261f" />
<rect x="520" y="220" width="60" height="60" fill="#90dbf4" />
<rect x="600" y="200" width="100" height="100" fill="#b5beba" />
<rect x="620" y="220" width="60" height="60" fill="#f1c0e8" />
<rect x="700" y="200" width="100" height="100" fill="#766d69" />
<rect x="720" y="220" width="60" height="60" fill="#f1c0e8" />
<rect x="800" y="200" width="100" height="100" fill="#18261f" />
<rect x="820" y="220" width="60" height="60" fill="#fbf8cc" />
<rect x="900" y="200" width="100" height="100" fill="#b5beba" />
<rect x="920" y="220" width="60" height="60" fill="#fbf8cc" />
<rect x="1000" y="200" width="100" height="100" fill="#18261f" />
<rect x="1020" y="220" width="60" height="60" fill="#ffcfd2" />
<rect x="1100" y="200" width="100" height="100" fill="#9ba29b" />
<rect x="1120" y="220" width="60" height="60" fill="#8eecf5" />
<rect x="1200" y="200" width="100" height="100" fill="#766d69" />
<rect x="1220" y="220" width="60" height="60" fill="#90dbf4" />
<rect x="1300" y="200" width="100" height="100" fill="#9ba29b" />
<rect x="1320" y="220" width="60" height="60" fill="#cfbaf0" />
<rect x="1400" y="200" width="100" height="100" fill="#766d69" />
<rect x="1420" y="220" width="60" height="60" fill="#90dbf4" />
<rect x="0" y="300" width="100" height="100" fill="#b5beba" />
<rect x="20" y="320" width="60" height="60" fill="#a3c4f3" />
<rect x="100" y="300" width="100" height="100" fill="#b5beba" />
<rect x="120" y="320" width="60" height="60" fill="#a3c4f3" />
<rect x="200" y="300" width="100" height="100" fill="#b5beba" />
<rect x="220" y="320" width="60" height="60" fill="#fbf8cc" />
<rect x="300" y="300" width="100" height="100" fill="#b5beba" />
<rect x="320" y="320" width="60" height="60" fill="#f1c0e8" />
<rect x="400" y="300" width="100" height="100" fill="#18261f" />
<rect x="420" y="320" width="60" height="60" fill="#fde4cf" />
<rect x="500" y="300" width="100" height="100" fill="#766d69" />
<rect x="520" y="320" width="60" height="60" fill="#fde4cf" />
<rect x="600" y="300" width="100" height="100" fill="#766d69" />
<rect x="620" y="320" width="60" height="60" fill="#ffcfd2" />
<rect x="700" y="300" width="100" height="100" fill="#b5beba" />
<rect x="720" y="320" width="60" height="60" fill="#ffcfd2" />
<rect x="800" y="300" width="100" height="100" fill="#b5beba" />
<rect x="820" y="320" width="60" height="60" fill="#fbf8cc" />
<rect x="900" y="300" width="100" height="100" fill="#18261f" />
<rect x="920" y="320" width="60" height="60" fill="#ffcfd2" />
<rect x="1000" y="300" width="100" height="100" fill="#b5beba" />
<rect x="1020" y="320" width="60" height="60" fill="#ffcfd2" />
<rect x="1100" y="300" width="100" height="100" fill="#9ba29b" />
<rect x="1120" y="320" width="60" height="60" fill="#fbf8cc" />
<rect x="1200" y="300" width="100" height="100" fill="#b5beba" />
<rect x="1220" y="320" width="60" height="60" fill="#ffcfd2" />
<rect x="1300" y="300" width="100" height="100" fill="#766d69" />
<rect x="1320" y="320" width="60" height="60" fill="#fde4cf" />
<rect x="1400" y="300" width="100" height="100" fill="#a7abad" />
<rect x="1420" y="320" width="60" height="60" fill="#a3c4f3" />
<rect x="0" y="400" width="100" height="100" fill="#a7abad" />
<rect x="20" y="420" width="60" height="60" fill="#f1c0e8" />
<rect x="100" y="400" width="100" height="100" fill="#766d69" />
<rect x="120" y="420" width="60" height="60" fill="#f1c0e8" />
<rect x="200" y="400" width="100" height="100" fill="#b5beba" />
<rect x="220" y="420" width="60" height="60" fill="#ffcfd2" />
<rect x="300" y="400" width="100" height="100" fill="#18261f" />
<rect x="320" y="420" width="60" height="60" fill="#ffcfd2" />
<rect x="400" y="400" width="100" height="100" fill="#9ba29b" />
<rect x="420" y="420" width="60" height="60" fill="#f1c0e8" />
<rect x="500" y="400" width="100" height="100" fill="#766d69" />
<rect x="520" y="420" width="60" height="60" fill="#90dbf4" />
<rect x="600" y="400" width="100" height="100" fill="#b5beba" />
<rect x="620" y="420" width="60" height="60" fill="#a3c4f3" />
<rect x="700" y="400" width="100" height="100" fill="#b5beba" />
<rect x="720" y="420" width="60" height="60" fill="#f1c0e8" />
<rect x="800" y="400" width="100" height="100" fill="#18261f" />
<rect x="820" y="420" width="60" height="60" fill="#98f5e1" />
<rect x="900" y="400" width="100" height="100" fill="#766d69" />
<rect x="920" y="420" width="60" height="60" fill="#fbf8cc" />
<rect x="1000" y="400" width="100" height="100" fill="#a7abad" />
<rect x="1020" y="420" width="60" height="60" fill="#90dbf4" />
<rect x="1100" y="400" width="100" height="100" fill="#a7abad" />
<rect x="1120" y="420" width="60" height="60" fill="#fde4cf" />
<rect x="1200" y="400" width="100" height="100" fill="#766d69" />
<rect x="1220" y="420" width="60" height="60" fill="#ffcfd2" />
<rect x="1300" y="400" width="100" height="100" fill="#b5beba" />
<rect x="1320" y="420" width="60" height="60" fill="#cfbaf0" />
<rect x="1400" y="400" width="100" height="100" fill="#b5beba" />
<rect x="1420" y="420" width="60" height="60" fill="#98f5e1" />
<rect x="0" y="500" width="100" height="100" fill="#9ba29b" />
<rect x="20" y="520" width="60" height="60" fill="#8eecf5" />
<rect x="100" y="500" width="100" height="100" fill="#a7abad" />
<rect x="120" y="520" width="60" height="60" fill="#fde4cf" />
<rect x="200" y="500" width="100" height="100" fill="#a7abad" />
<rect x="220" y="520" width="60" height="60" fill="#8eecf5" />
<rect x="300" y="500" width="100" height="100" fill="#18261f" />
<rect x="320" y="520" width="60" height="60" fill="#f1c0e8" />
<rect x="400" y="500" width="100" height="100" fill="#9ba29b" />
<rect x="420" y="520" width="60" height="60" fill="#90dbf4" />
<rect x="500" y="500" width="100" height="100" fill="#b5beba" />
<rect x="520" y="520" width="60" height="60" fill="#fbf8cc" />
<rect x="600" y="500" width="100" height="100" fill="#b5beba" />
<rect x="620" y="520" width="60" height="60" fill="#8eecf5" />
<rect x="700" y="500" width="100" height="100" fill="#a7abad" />
<rect x="720" y="520" width="60" height="60" fill="#fbf8cc" />
<rect x="800" y="500" width="100" height="100" fill="#a7abad" />
<rect x="820" y="520" width="60" height="60" fill="#f1c0e8" />
<rect x="900" y="500" width="100" height="100" fill="#9ba29b" />
<rect x="920" y="520" width="60" height="60" fill="#fde4cf" />
<rect x="1000" y="500" width="100" height="100" fill="#766d69" />
<rect x="1020" y="520" width="60" height="60" fill="#8eecf5" />
<rect x="1100" y="500" width="100" height="100" fill="#9ba29b" />
<rect x="1120" y="520" width="60" height="60" fill="#ffcfd2" />
<rect x="1200" y="500" width="100" height="100" fill="#a7abad" />
<rect x="1220" y="520" width="60" height="60" fill="#ffcfd2" />
<rect x="1300" y="500" width="100" height="100" fill="#9ba29b" />
<rect x="1320" y="520" width="60" height="60" fill="#fbf8cc" />
<rect x="1400" y="500" width="100" height="100" fill="#766d69" />
<rect x="1420" y="520" width="60" height="60" fill="#fde4cf" />
<rect x="0" y="600" width="100" height="100" fill="#a7abad" />
<rect x="20" y="620" width="60" height="60" fill="#fde4cf" />
<rect x="100" y="600" width="100" height="100" fill="#b5beba" />
<rect x="120" y="620" width="60" height="60" fill="#f1c0e8" />
<rect x="200" y="600" width="100" height="100" fill="#766d69" />
<rect x="220" y="620" width="60" height="60" fill="#90dbf4" />
<rect x="300" y="600" width="100" height="100" fill="#18261f" />
<rect x="320" y="620" width="60" height="60" fill="#90dbf4" />
<rect x="400" y="600" width="100" height="100" fill="#9ba29b" />
<rect x="420" y="620" width="60" height="60" fill="#98f5e1" />
<rect x="500" y="600" width="100" height="100" fill="#766d69" />
<rect x="520" y="620" width="60" height="60" fill="#cfbaf0" />
<rect x="600" y="600" width="100" height="100" fill="#9ba29b" />
<rect x="620" y="620" width="60" height="60" fill="#cfbaf0" />
<rect x="700" y="600" width="100" height="100" fill="#a7abad" />
<rect x="720" y="620" width="60" height="60" fill="#8eecf5" />
<rect x="800" y="600" width="100" height="100" fill="#9ba29b" />
<rect x="820" y="620" width="60" height="60" fill="#8eecf5" />
<rect x="900" y="600" width="100" height="100" fill="#9ba29b" />
<rect x="920" y="620" width="60" height="60" fill="#90dbf4" />
<rect x="1000" y="600" width="100" height="100" fill="#9ba29b" />
<rect x="1020" y="620" width="60" height="60" fill="#fbf8cc" />
<rect x="1100" y="600" width="100" height="100" fill="#a7abad" />
<rect x="1120" y="620" width="60" height="60" fill="#90dbf4" />
<rect x="1200" y="600" width="100" height="100" fill="#b5beba" />
<rect x="1220" y="620" width="60" height="60" fill="#8eecf5" />
<rect x="1300" y="600" width="100" height="100" fill="#766d69" />
<rect x="1320" y="620" width="60" height="60" fill="#fbf8cc" />
<rect x="1400" y="600" width="100" height="100" fill="#18261f" />
<rect x="1420" y="620" width="60" height="60" fill="#a3c4f3" />
<rect x="0" y="700" width="100" height="100" fill="#a7abad" />
<rect x="20" y="720" width="60" height="60" fill="#8eecf5" />
<rect x="100" y="700" width="100" height="100" fill="#18261f" />
<rect x="120" y="720" width="60" height="60" fill="#90dbf4" />
<rect x="200" y="700" width="100" height="100" fill="#766d69" />
<rect x="220" y="720" width="60" height="60" fill="#8eecf5" />
<rect x="300" y="700" width="100" height="100" fill="#b5beba" />
<rect x="320" y="720" width="60" height="60" fill="#98f5e1" />
<rect x="400" y="700" width="100" height="100" fill="#766d69" />
<rect x="420" y="720" width="60" height="60" fill="#8eecf5" />
<rect x="500" y="700" width="100" height="100" fill="#b5beba" />
<rect x="520" y="720" width="60" height="60" fill="#8eecf5" />
<rect x="600" y="700" width="100" height="100" fill="#18261f" />
<rect x="620" y="720" width="60" height="60" fill="#a3c4f3" />
<rect x="700" y="700" width="100" height="100" fill="#b5beba" />
<rect x="720" y="720" width="60" height="60" fill="#a3c4f3" />
<rect x="800" y="700" width="100" height="100" fill="#b5beba" />
<rect x="820" y="720" width="60" height="60" fill="#fde4cf" />
<rect x="900" y="700" width="100" height="100" fill="#b5beba" />
<rect x="920" y="720" width="60" height="60" fill="#cfbaf0" />
<rect x="1000" y="700" width="100" height="100" fill="#a7abad" />
<rect x="1020" y="720" width="60" height="60" fill="#a3c4f3" />
<rect x="1100" y="700" width="100" height="100" fill="#766d69" />
<rect x="1120" y="720" width="60" height="60" fill="#90dbf4" />
<rect x="1200" y="700" width="100" height="100" fill="#a7abad" />
<rect x="1220" y="720" width="60" height="60" fill="#ffcfd2" />
<rect x="1300" y="700" width="100" height="100" fill="#a7abad" />
<rect x="1320" y="720" width="60" height="60" fill="#90dbf4" />
<rect x="1400" y="700" width="100" height="100" fill="#766d69" />
<rect x="1420" y="720" width="60" height="60" fill="#f1c0e8" />
<rect x="0" y="800" width="100" height="100" fill="#9ba29b" />
<rect x="20" y="820" width="60" height="60" fill="#b9fbc0" />
<rect x="100" y="800" width="100" height="100" fill="#18261f" />
<rect x="120" y="820" width="60" height="60" fill="#cfbaf0" />
<rect x="200" y="800" width="100" height="100" fill="#766d69" />
<rect x="220" y="820" width="60" height="60" fill="#fde4cf" />
<rect x="300" y="800" width="100" height="100" fill="#a7abad" />
<rect x="320" y="820" width="60" height="60" fill="#98f5e1" />
<rect x="400" y="800" width="100" height="100" fill="#9ba29b" />
<rect x="420" y="820" width="60" height="60" fill="#fbf8cc" />
<rect x="500" y="800" width="100" height="100" fill="#9ba29b" />
<rect x="520" y="820" width="60" height="60" fill="#ffcfd2" />
<rect x="600" y="800" width="100" height="100" fill="#b5beba" />
<rect x="620" y="820" width="60" height="60" fill="#fde4cf" />
<rect x="700" y="800" width="100" height="100" fill="#9ba29b" />
<rect x="720" y="820" width="60" height="60" fill="#fbf8cc" />
<rect x="800" y="800" width="100" height="100" fill="#b5beba" />
<rect x="820" y="820" width="60" height="60" fill="#fde4cf" />
<rect x="900" y="800" width="100" height="100" fill="#766d69" />
<rect x="920" y="820" width="60" height="60" fill="#98f5e1" />
<rect x="1000" y="800" width="100" height="100" fill="#a7abad" />
<rect x="1020" y="820" width="60" height="60" fill="#fde4cf" />
<rect x="1100" y="800" width="100" height="100" fill="#a7abad" />
<rect x="1120" y="820" width="60" height="60" fill="#8eecf5" />
<rect x="1200" y="800" width="100" height="100" fill="#b5beba" />
<rect x="1220" y="820" width="60" height="60" fill="#fbf8cc" />
<rect x="1300" y="800" width="100" height="100" fill="#18261f" />
<rect x="1320" y="820" width="60" height="60" fill="#8eecf5" />
<rect x="1400" y="800" width="100" height="100" fill="#a7abad" />
<rect x="1420" y="820" width="60" height="60" fill="#98f5e1" />
<rect x="0" y="900" width="100" height="100" fill="#9ba29b" />
<rect x="20" y="920" width="60" height="60" fill="#b9fbc0" />
<rect x="100" y="900" width="100" height="100" fill="#18261f" />
<rect x="120" y="920" width="60" height="60" fill="#90dbf4" />
<rect x="200" y="900" width="100" height="100" fill="#9ba29b" />
<rect x="220" y="920" width="60" height="60" fill="#a3c4f3" />
<rect x="300" y="900" width="100" height="100" fill="#766d69" />
<rect x="320" y="920" width="60" height="60" fill="#f1c0e8" />
<rect x="400" y="900" width="100" height="100" fill="#18261f" />
<rect x="420" y="920" width="60" height="60" fill="#a3c4f3" />
<rect x="500" y="900" width="100" height="100" fill="#18261f" />
<rect x="520" y="920" width="60" height="60" fill="#ffcfd2" />
<rect x="600" y="900" width="100" height="100" fill="#766d69" />
<rect x="620" y="920" width="60" height="60" fill="#90dbf4" />
<rect x="700" y="900" width="100" height="100" fill="#766d69" />
<rect x="720" y="920" width="60" height="60" fill="#cfbaf0" />
<rect x="800" y="900" width="100" height="100" fill="#9ba29b" />
<rect x="820" y="920" width="60" height="60" fill="#b9fbc0" />
<rect x="900" y="900" width="100" height="100" fill="#766d69" />
<rect x="920" y="920" width="60" height="60" fill="#fbf8cc" />
<rect x="1000" y="900" width="100" height="100" fill="#766d69" />
<rect x="1020" y="920" width="60" height="60" fill="#fde4cf" />
<rect x="1100" y="900" width="100" height="100" fill="#9ba29b" />
<rect x="1120" y="920" width="60" height="60" fill="#fbf8cc" />
<rect x="1200" y="900" width="100" height="100" fill="#a7abad" />
<rect x="1220" y="920" width="60" height="60" fill="#fbf8cc" />
<rect x="1300" y="900" width="100" height="100" fill="#9ba29b" />
<rect x="1320" y="920" width="60" height="60" fill="#fde4cf" />
<rect x="1400" y="900" width="100" height="100" fill="#18261f" />
<rect x="1420" y="920" width="60" height="60" fill="#fde4cf" />
<rect x="0" y="1000" width="100" height="100" fill="#18261f" />
<rect x="20" y="1020" width="60" height="60" fill="#fde4cf" />
<rect x="100" y="1000" width="100" height="100" fill="#766d69" />
<rect x="120" y="1020" width="60" height="60" fill="#cfbaf0" />
<rect x="200" y="1000" width="100" height="100" fill="#b5beba" />
<rect x="220" y="1020" width="60" height="60" fill="#8eecf5" />
<rect x="300" y="1000" width="100" height="100" fill="#b5beba" />
<rect x="320" y="1020" width="60" height="60" fill="#f1c0e8" />
<rect x="400" y="1000" width="100" height="100" fill="#a7abad" />
<rect x="420" y="1020" width="60" height="60" fill="#98f5e1" />
<rect x="500" y="1000" width="100" height="100" fill="#b5beba" />
<rect x="520" y="1020" width="60" height="60" fill="#b9fbc0" />
<rect x="600" y="1000" width="100" height="100" fill="#b5beba" />
<rect x="620" y="1020" width="60" height="60" fill="#cfbaf0" />
<rect x="700" y="1000" width="100" height="100" fill="#a7abad" />
<rect x="720" y="1020" width="60" height="60" fill="#8eecf5" />
<rect x="800" y="1000" width="100" height="100" fill="#18261f" />
<rect x="820" y="1020" width="60" height="60" fill="#ffcfd2" />
<rect x="900" y="1000" width="100" height="100" fill="#b5beba" />
<rect x="920" y="1020" width="60" height="60" fill="#fde4cf" />
<rect x="1000" y="1000" width="100" height="100" fill="#b5beba" />
<rect x="1020" y="1020" width="60" height="60" fill="#a3c4f3" />
<rect x="1100" y="1000" width="100" height="100" fill="#766d69" />
<rect x="1120" y="1020" width="60" height="60" fill="#fbf8cc" />
<rect x="1200" y="1000" width="100" height="100" fill="#b5beba" />
<rect x="1220" y="1020" width="60" height="60" fill="#8eecf5" />
<rect x="1300" y="1000" width="100" height="100" fill="#18261f" />
<rect x="1320" y="1020" width="60" height="60" fill="#a3c4f3" />
<rect x="1400" y="1000" width="100" height="100" fill="#b5beba" />
<rect x="1420" y="1020" width="60" height="60" fill="#fde4cf" />
<rect x="0" y="1100" width="100" height="100" fill="#766d69" />
<rect x="20" y="1120" width="60" height="60" fill="#f1c0e8" />
<rect x="100" y="1100" width="100" height="100" fill="#18261f" />
<rect x="120" y="1120" width="60" height="60" fill="#b9fbc0" />
<rect x="200" y="1100" width="100" height="100" fill="#b5beba" />
<rect x="220" y="1120" width="60" height="60" fill="#cfbaf0" />
<rect x="300" y="1100" width="100" height="100" fill="#b5beba" />
<rect x="320" y="1120" width="60" height="60" fill="#cfbaf0" />
<rect x="400" y="1100" width="100" height="100" fill="#9ba29b" />
<rect x="420" y="1120" width="60" height="60" fill="#fde4cf" />
<rect x="500" y="1100" width="100" height="100" fill="#b5beba" />
<rect x="520" y="1120" width="60" height="60" fill="#f1c0e8" />
<rect x="600" y="1100" width="100" height="100" fill="#b5beba" />
<rect x="620" y="1120" width="60" height="60" fill="#90dbf4" />
<rect x="700" y="1100" width="100" height="100" fill="#a7abad" />
<rect x="720" y="1120" width="60" height="60" fill="#90dbf4" />
<rect x="800" y="1100" width="100" height="100" fill="#a7abad" />
<rect x="820" y="1120" width="60" height="60" fill="#fde4cf" />
<rect x="900" y="1100" width="100" height="100" fill="#766d69" />
<rect x="920" y="1120" width="60" height="60" fill="#f1c0e8" />
<rect x="1000" y="1100" width="100" height="100" fill="#18261f" />
<rect x="1020" y="1120" width="60" height="60" fill="#a3c4f3" />
<rect x="1100" y="1100" width="100" height="100" fill="#b5beba" />
<rect x="1120" y="1120" width="60" height="60" fill="#fde4cf" />
<rect x="1200" y="1100" width="100" height="100" fill="#9ba29b" />
<rect x="1220" y="1120" width="60" height="60" fill="#fbf8cc" />
<rect x="1300" y="1100" width="100" height="100" fill="#18261f" />
<rect x="1320" y="1120" width="60" height="60" fill="#fbf8cc" />
<rect x="1400" y="1100" width="100" height="100" fill="#b5beba" />
<rect x="1420" y="1120" width="60" height="60" fill="#f1c0e8" />
<rect x="0" y="1200" width="100" height="100" fill="#766d69" />
<rect x="20" y="1220" width="60" height="60" fill="#ffcfd2" />
<rect x="100" y="1200" width="100" height="100" fill="#a7abad" />
<rect x="120" y="1220" width="60" height="60" fill="#90dbf4" />
<rect x="200" y="1200" width="100" height="100" fill="#b5beba" />
<rect x="220" y="1220" width="60" height="60" fill="#98f5e1" />
<rect x="300" y="1200" width="100" height="100" fill="#b5beba" />
<rect x="320" y="1220" width="60" height="60" fill="#90dbf4" />
<rect x="400" y="1200" width="100" height="100" fill="#a7abad" />
<rect x="420" y="1220" width="60" height="60" fill="#90dbf4" />
<rect x="500" y="1200" width="100" height="100" fill="#766d69" />
<rect x="520" y="1220" width="60" height="60" fill="#a3c4f3" />
<rect x="600" y="1200" width="100" height="100" fill="#b5beba" />
<rect x="620" y="1220" width="60" height="60" fill="#cfbaf0" />
<rect x="700" y="1200" width="100" height="100" fill="#a7abad" />
<rect x="720" y="1220" width="60" height="60" fill="#ffcfd2" />
<rect x="800" y="1200" width="100" height="100" fill="#18261f" />
<rect x="820" y="1220" width="60" height="60" fill="#cfbaf0" />
<rect x="900" y="1200" width="100" height="100" fill="#9ba29b" />
<rect x="920" y="1220" width="60" height="60" fill="#98f5e1" />
<rect x="1000" y="1200" width="100" height="100" fill="#b5beba" />
<rect x="1020" y="1220" width="60" height="60" fill="#f1c0e8" />
<rect x="1100" y="1200" width="100" height="100" fill="#b5beba" />
<rect x="1120" y="1220" width="60" height="60" fill="#b9fbc0" />
<rect x="1200" y="1200" width="100" height="100" fill="#9ba29b" />
<rect x="1220" y="1220" width="60" height="60" fill="#fbf8cc" />
<rect x="1300" y="1200" width="100" height="100" fill="#766d69" />
<rect x="1320" y="1220" width="60" height="60" fill="#fde4cf" />
<rect x="1400" y="1200" width="100" height="100" fill="#9ba29b" />
<rect x="1420" y="1220" width="60" height="60" fill="#98f5e1" />
<rect x="0" y="1300" width="100" height="100" fill="#766d69" />
<rect x="20" y="1320" width="60" height="60" fill="#ffcfd2" />
<rect x="100" y="1300" width="100" height="100" fill="#a7abad" />
<rect x="120" y="1320" width="60" height="60" fill="#f1c0e8" />
<rect x="200" y="1300" width="100" height="100" fill="#b5beba" />
<rect x="220" y="1320" width="60" height="60" fill="#ffcfd2" />
<rect x="300" y="1300" width="100" height="100" fill="#18261f" />
<rect x="320" y="1320" width="60" height="60" fill="#fbf8cc" />
<rect x="400" y="1300" width="100" height="100" fill="#b5beba" />
<rect x="420" y="1320" width="60" height="60" fill="#fbf8cc" />
<rect x="500" y="1300" width="100" height="100" fill="#9ba29b" />
<rect x="520" y="1320" width="60" height="60" fill="#ffcfd2" />
<rect x="600" y="1300" width="100" height="100" fill="#9ba29b" />
<rect x="620" y="1320" width="60" height="60" fill="#90dbf4" />
<rect x="700" y="1300" width="100" height="100" fill="#18261f" />
<rect x="720" y="1320" width="60" height="60" fill="#98f5e1" />
<rect x="800" y="1300" width="100" height="100" fill="#18261f" />
<rect x="820" y="1320" width="60" height="60" fill="#fbf8cc" />
<rect x="900" y="1300" width="100" height="100" fill="#b5beba" />
<rect x="920" y="1320" width="60" height="60" fill="#90dbf4" />
<rect x="1000" y="1300" width="100" height="100" fill="#766d69" />
<rect x="1020" y="1320" width="60" height="60" fill="#a3c4f3" />
<rect x="1100" y="1300" width="100" height="100" fill="#a7abad" />
<rect x="1120" y="1320" width="60" height="60" fill="#8eecf5" />
<rect x="1200" y="1300" width="100" height="100" fill="#9ba29b" />
<rect x="1220" y="1320" width="60" height="60" fill="#8eecf5" />
<rect x="1300" y="1300" width="100" height="100" fill="#766d69" />
<rect x="1320" y="1320" width="60" height="60" fill="#98f5e1" />
<rect x="1400" y="1300" width="100" height="100" fill="#a7abad" />
<rect x="1420" y="1320" width="60" height="60" fill="#f1c0e8" />
<rect x="0" y="1400" width="100" height="100" fill="#18261f" />
<rect x="20" y="1420" width="60" height="60" fill="#a3c4f3" />
<rect x="100" y="1400" width="100" height="100" fill="#a7abad" />
<rect x="120" y="1420" width="60" height="60" fill="#f1c0e8" />
<rect x="200" y="1400" width="100" height="100" fill="#a7abad" />
<rect x="220" y="1420" width="60" height="60" fill="#90dbf4" />
<rect x="300" y="1400" width="100" height="100" fill="#b5beba" />
<rect x="320" y="1420" width="60" height="60" fill="#ffcfd2" />
<rect x="400" y="1400" width="100" height="100" fill="#a7abad" />
<rect x="420" y="1420" width="60" height="60" fill="#8eecf5" />
<rect x="500" y="1400" width="100" height="100" fill="#9ba29b" />
<rect x="520" y="1420" width="60" height="60" fill="#cfbaf0" />
<rect x="600" y="1400" width="100" height="100" fill="#18261f" />
<rect x="620" y="1420" width="60" height="60" fill="#f1c0e8" />
<rect x="700" y="1400" width="100" height="100" fill="#766d69" />
<rect x="720" y="1420" width="60" height="60" fill="#b9fbc0" />
<rect x="800" y="1400" width="100" height="100" fill="#b5beba" />
<rect x="820" y="1420" width="60" height="60" fill="#90dbf4" />
<rect x="900" y="1400" width="100" height="100" fill="#b5beba" />
<rect x="920" y="1420" width="60" height="60" fill="#8eecf5" />
<rect x="1000" y="1400" width="100" height="100" fill="#9ba29b" />
<rect x="1020" y="1420" width="60" height="60" fill="#f1c0e8" />
<rect x="1100" y="1400" width="100" height="100" fill="#9ba29b" />
<rect x="1120" y="1420" width="60" height="60" fill="#fbf8cc" />
<rect x="1200" y="1400" width="100" height="100" fill="#9ba29b" />
<rect x="1220" y="1420" width="60" height="60" fill="#98f5e1" />
<rect x="1300" y="1400" width="100" height="100" fill="#766d69" />
<rect x="1320" y="1420" width="60" height="60" fill="#a3c4f3" />
<rect x="1400" y="1400" width="100" height="100" fill="#9ba29b" />
<rect x="1420" y="1420" width="60" height="60" fill="#98f5e1" />
<text x="0" y="1620" style="font: bold 30px sans-serif;">Forground Palette (pastel colors)</text>
<rect x="0" y="1650" width="100" height="100" fill="#fbf8cc"/><text x="20" y="1770" style="font: 12px sans-serif;">#fbf8cc</text>
<rect x="100" y="1650" width="100" height="100" fill="#fde4cf"/><text x="120" y="1770" style="font: 12px sans-serif;">#fde4cf</text>
<rect x="200" y="1650" width="100" height="100" fill="#ffcfd2"/><text x="220" y="1770" style="font: 12px sans-serif;">#ffcfd2</text>
<rect x="300" y="1650" width="100" height="100" fill="#f1c0e8"/><text x="320" y="1770" style="font: 12px sans-serif;">#f1c0e8</text>
<rect x="400" y="1650" width="100" height="100" fill="#cfbaf0"/><text x="420" y="1770" style="font: 12px sans-serif;">#cfbaf0</text>
<rect x="500" y="1650" width="100" height="100" fill="#a3c4f3"/><text x="520" y="1770" style="font: 12px sans-serif;">#a3c4f3</text>
<rect x="600" y="1650" width="100" height="100" fill="#90dbf4"/><text x="620" y="1770" style="font: 12px sans-serif;">#90dbf4</text>
<rect x="700" y="1650" width="100" height="100" fill="#8eecf5"/><text x="720" y="1770" style="font: 12px sans-serif;">#8eecf5</text>
<rect x="800" y="1650" width="100" height="100" fill="#98f5e1"/><text x="820" y="1770" style="font: 12px sans-serif;">#98f5e1</text>
<rect x="900" y="1650" width="100" height="100" fill="#b9fbc0"/><text x="920" y="1770" style="font: 12px sans-serif;">#b9fbc0</text>

<text x="0" y="1820" style="font: bold 30px sans-serif;">Background Palette (background_palette_1)</text>
<rect x="0" y="1850" width="100" height="100" fill="#9ba29b"/><text x="20" y="1970" style="font: 12px sans-serif;">#9ba29b</text>
<rect x="100" y="1850" width="100" height="100" fill="#a7abad"/><text x="120" y="1970" style="font: 12px sans-serif;">#a7abad</text>
<rect x="200" y="1850" width="100" height="100" fill="#18261f"/><text x="220" y="1970" style="font: 12px sans-serif;">#18261f</text>
<rect x="300" y="1850" width="100" height="100" fill="#766d69"/><text x="320" y="1970" style="font: 12px sans-serif;">#766d69</text>
<rect x="400" y="1850" width="100" height="100" fill="#b5beba"/><text x="420" y="1970" style="font: 12px sans-serif;">#b5beba</text>
</svg>