<svg xmlns="http://www.w3.org/2000/svg"
            xmlns:xlink="http://www.w3.org/1999/xlink"
            version="1.1" 
            baseProfile="full"
            width="1500" height="2000"
            viewBox="0 0 1500 2000">
            <title>Opart by TCI</title>
            <desc>Generiert mit Python</desc>
<rect x="0" y="0" width="100" height="100" fill="#343a40" />
<rect x="20" y="20" width="60" height="60" fill="#ffd671" />
<rect x="100" y="0" width="100" height="100" fill="#f8f9fa" />
<rect x="120" y="20" width="60" height="60" fill="#ff4648" />
<rect x="200" y="0" width="100" height="100" fill="#f8f9fa" />
<rect x="220" y="20" width="60" height="60" fill="#ff0074" />
<rect x="300" y="0" width="100" height="100" fill="#6c757d" />
<rect x="320" y="20" width="60" height="60" fill="#ff9847" />
<rect x="400" y="0" width="100" height="100" fill="#f8f9fa" />
<rect x="420" y="20" width="60" height="60" fill="#ff9847" />
<rect x="500" y="0" width="100" height="100" fill="#dee2e6" />
<rect x="520" y="20" width="60" height="60" fill="#ffd671" />
<rect x="600" y="0" width="100" height="100" fill="#adb5bd" />
<rect x="620" y="20" width="60" height="60" fill="#eff89a" />
<rect x="700" y="0" width="100" height="100" fill="#f8f9fa" />
<rect x="720" y="20" width="60" height="60" fill="#ff4648" />
<rect x="800" y="0" width="100" height="100" fill="#f8f9fa" />
<rect x="820" y="20" width="60" height="60" fill="#ff0074" />
<rect x="900" y="0" width="100" height="100" fill="#6c757d" />
<rect x="920" y="20" width="60" height="60" fill="#ffd671" />
<rect x="1000" y="0" width="100" height="100" fill="#adb5bd" />
<rect x="1020" y="20" width="60" height="60" fill="#ff0074" />
<rect x="1100" y="0" width="100" height="100" fill="#343a40" />
<rect x="1120" y="20" width="60" height="60" fill="#eff89a" />
<rect x="1200" y="0" width="100" height="100" fill="#dee2e6" />
<rect x="1220" y="20" width="60" height="60" fill="#ff9847" />
<rect x="1300" y="0" width="100" height="100" fill="#343a40" />
<rect x="1320" y="20" width="60" height="60" fill="#ff4648" />
<rect x="1400" y="0" width="100" height="100" fill="#6c757d" />
<rect x="1420" y="20" width="60" height="60" fill="#ffd671" />
<rect x="0" y="100" width="100" height="100" fill="#6c757d" />
<rect x="20" y="120" width="60" height="60" fill="#ff0074" />
<rect x="100" y="100" width="100" height="100" fill="#e9ecef" />
<rect x="120" y="120" width="60" height="60" fill="#ff0074" />
<rect x="200" y="100" width="100" height="100" fill="#6c757d" />
<rect x="220" y="120" width="60" height="60" fill="#ff0074" />
<rect x="300" y="100" width="100" height="100" fill="#ced4da" />
<rect x="320" y="120" width="60" height="60" fill="#ff0074" />
<rect x="400" y="100" width="100" height="100" fill="#6c757d" />
<rect x="420" y="120" width="60" height="60" fill="#eff89a" />
<rect x="500" y="100" width="100" height="100" fill="#343a40" />
<rect x="520" y="120" width="60" height="60" fill="#ff4648" />
<rect x="600" y="100" width="100" height="100" fill="#6c757d" />
<rect x="620" y="120" width="60" height="60" fill="#ff0074" />
<rect x="700" y="100" width="100" height="100" fill="#212529" />
<rect x="720" y="120" width="60" height="60" fill="#ff0074" />
<rect x="800" y="100" width="100" height="100" fill="#212529" />
<rect x="820" y="120" width="60" height="60" fill="#ff0074" />
<rect x="900" y="100" width="100" height="100" fill="#212529" />
<rect x="920" y="120" width="60" height="60" fill="#ff9847" />
<rect x="1000" y="100" width="100" height="100" fill="#f8f9fa" />
<rect x="1020" y="120" width="60" height="60" fill="#ff9847" />
<rect x="1100" y="100" width="100" height="100" fill="#343a40" />
<rect x="1120" y="120" width="60" height="60" fill="#ff9847" />
<rect x="1200" y="100" width="100" height="100" fill="#f8f9fa" />
<rect x="1220" y="120" width="60" height="60" fill="#ff4648" />
<rect x="1300" y="100" width="100" height="100" fill="#dee2e6" />
<rect x="1320" y="120" width="60" height="60" fill="#ffd671" />
<rect x="1400" y="100" width="100" height="100" fill="#adb5bd" />
<rect x="1420" y="120" width="60" height="60" fill="#eff89a" />
<rect x="0" y="200" width="100" height="100" fill="#e9ecef" />
<rect x="20" y="220" width="60" height="60" fill="#ff9847" />
<rect x="100" y="200" width="100" height="100" fill="#212529" />
<rect x="120" y="220" width="60" height="60" fill="#ff9847" />
<rect x="200" y="200" width="100" height="100" fill="#ced4da" />
<rect x="220" y="220" width="60" height="60" fill="#ff4648" />
<rect x="300" y="200" width="100" height="100" fill="#495057" />
<rect x="320" y="220" width="60" height="60" fill="#ff0074" />
<rect x="400" y="200" width="100" height="100" fill="#ced4da" />
<rect x="420" y="220" width="60" height="60" fill="#eff89a" />
<rect x="500" y="200" width="100" height="100" fill="#6c757d" />
<rect x="520" y="220" width="60" height="60" fill="#eff89a" />
<rect x="600" y="200" width="100" height="100" fill="#adb5bd" />
<rect x="620" y="220" width="60" height="60" fill="#ffd671" />
<rect x="700" y="200" width="100" height="100" fill="#343a40" />
<rect x="720" y="220" width="60" height="60" fill="#ffd671" />
<rect x="800" y="200" width="100" height="100" fill="#495057" />
<rect x="820" y="220" width="60" height="60" fill="#ffd671" />
<rect x="900" y="200" width="100" height="100" fill="#343a40" />
<rect x="920" y="220" width="60" height="60" fill="#ff4648" />
<rect x="1000" y="200" width="100" height="100" fill="#f8f9fa" />
<rect x="1020" y="220" width="60" height="60" fill="#ff0074" />
<rect x="1100" y="200" width="100" height="100" fill="#495057" />
<rect x="1120" y="220" width="60" height="60" fill="#eff89a" />
<rect x="1200" y="200" width="100" height="100" fill="#adb5bd" />
<rect x="1220" y="220" width="60" height="60" fill="#eff89a" />
<rect x="1300" y="200" width="100" height="100" fill="#f8f9fa" />
<rect x="1320" y="220" width="60" height="60" fill="#ffd671" />
<rect x="1400" y="200" width="100" height="100" fill="#f8f9fa" />
<rect x="1420" y="220" width="60" height="60" fill="#eff89a" />
<rect x="0" y="300" width="100" height="100" fill="#6c757d" />
<rect x="20" y="320" width="60" height="60" fill="#ffd671" />
<rect x="100" y="300" width="100" height="100" fill="#495057" />
<rect x="120" y="320" width="60" height="60" fill="#ff9847" />
<rect x="200" y="300" width="100" height="100" fill="#6c757d" />
<rect x="220" y="320" width="60" height="60" fill="#ff0074" />
<rect x="300" y="300" width="100" height="100" fill="#495057" />
<rect x="320" y="320" width="60" height="60" fill="#eff89a" />
<rect x="400" y="300" width="100" height="100" fill="#212529" />
<rect x="420" y="320" width="60" height="60" fill="#ff0074" />
<rect x="500" y="300" width="100" height="100" fill="#adb5bd" />
<rect x="520" y="320" width="60" height="60" fill="#eff89a" />
<rect x="600" y="300" width="100" height="100" fill="#dee2e6" />
<rect x="620" y="320" width="60" height="60" fill="#ffd671" />
<rect x="700" y="300" width="100" height="100" fill="#e9ecef" />
<rect x="720" y="320" width="60" height="60" fill="#eff89a" />
<rect x="800" y="300" width="100" height="100" fill="#212529" />
<rect x="820" y="320" width="60" height="60" fill="#eff89a" />
<rect x="900" y="300" width="100" height="100" fill="#343a40" />
<rect x="920" y="320" width="60" height="60" fill="#eff89a" />
<rect x="1000" y="300" width="100" height="100" fill="#6c757d" />
<rect x="1020" y="320" width="60" height="60" fill="#ff9847" />
<rect x="1100" y="300" width="100" height="100" fill="#f8f9fa" />
<rect x="1120" y="320" width="60" height="60" fill="#ffd671" />
<rect x="1200" y="300" width="100" height="100" fill="#343a40" />
<rect x="1220" y="320" width="60" height="60" fill="#ff4648" />
<rect x="1300" y="300" width="100" height="100" fill="#6c757d" />
<rect x="1320" y="320" width="60" height="60" fill="#ff4648" />
<rect x="1400" y="300" width="100" height="100" fill="#212529" />
<rect x="1420" y="320" width="60" height="60" fill="#eff89a" />
<rect x="0" y="400" width="100" height="100" fill="#adb5bd" />
<rect x="20" y="420" width="60" height="60" fill="#ff4648" />
<rect x="100" y="400" width="100" height="100" fill="#adb5bd" />
<rect x="120" y="420" width="60" height="60" fill="#ff4648" />
<rect x="200" y="400" width="100" height="100" fill="#e9ecef" />
<rect x="220" y="420" width="60" height="60" fill="#ffd671" />
<rect x="300" y="400" width="100" height="100" fill="#212529" />
<rect x="320" y="420" width="60" height="60" fill="#ff4648" />
<rect x="400" y="400" width="100" height="100" fill="#6c757d" />
<rect x="420" y="420" width="60" height="60" fill="#ffd671" />
<rect x="500" y="400" width="100" height="100" fill="#495057" />
<rect x="520" y="420" width="60" height="60" fill="#eff89a" />
<rect x="600" y="400" width="100" height="100" fill="#adb5bd" />
<rect x="620" y="420" width="60" height="60" fill="#ffd671" />
<rect x="700" y="400" width="100" height="100" fill="#ced4da" />
<rect x="720" y="420" width="60" height="60" fill="#eff89a" />
<rect x="800" y="400" width="100" height="100" fill="#495057" />
<rect x="820" y="420" width="60" height="60" fill="#ffd671" />
<rect x="900" y="400" width="100" height="100" fill="#343a40" />
<rect x="920" y="420" width="60" height="60" fill="#eff89a" />
<rect x="1000" y="400" width="100" height="100" fill="#f8f9fa" />
<rect x="1020" y="420" width="60" height="60" fill="#ff9847" />
<rect x="1100" y="400" width="100" height="100" fill="#212529" />
<rect x="1120" y="420" width="60" height="60" fill="#ffd671" />
<rect x="1200" y="400" width="100" height="100" fill="#dee2e6" />
<rect x="1220" y="420" width="60" height="60" fill="#eff89a" />
<rect x="1300" y="400" width="100" height="100" fill="#495057" />
<rect x="1320" y="420" width="60" height="60" fill="#ffd671" />
<rect x="1400" y="400" width="100" height="100" fill="#495057" />
<rect x="1420" y="420" width="60" height="60" fill="#ff9847" />
<rect x="0" y="500" width="100" height="100" fill="#343a40" />
<rect x="20" y="520" width="60" height="60" fill="#ffd671" />
<rect x="100" y="500" width="100" height="100" fill="#343a40" />
<rect x="120" y="520" width="60" height="60" fill="#ff4648" />
<rect x="200" y="500" width="100" height="100" fill="#e9ecef" />
<rect x="220" y="520" width="60" height="60" fill="#ffd671" />
<rect x="300" y="500" width="100" height="100" fill="#ced4da" />
<rect x="320" y="520" width="60" height="60" fill="#eff89a" />
<rect x="400" y="500" width="100" height="100" fill="#adb5bd" />
<rect x="420" y="520" width="60" height="60" fill="#eff89a" />
<rect x="500" y="500" width="100" height="100" fill="#495057" />
<rect x="520" y="520" width="60" height="60" fill="#ffd671" />
<rect x="600" y="500" width="100" height="100" fill="#495057" />
<rect x="620" y="520" width="60" height="60" fill="#eff89a" />
<rect x="700" y="500" width="100" height="100" fill="#343a40" />
<rect x="720" y="520" width="60" height="60" fill="#ffd671" />
<rect x="800" y="500" width="100" height="100" fill="#e9ecef" />
<rect x="820" y="520" width="60" height="60" fill="#ff0074" />
<rect x="900" y="500" width="100" height="100" fill="#e9ecef" />
<rect x="920" y="520" width="60" height="60" fill="#eff89a" />
<rect x="1000" y="500" width="100" height="100" fill="#adb5bd" />
<rect x="1020" y="520" width="60" height="60" fill="#eff89a" />
<rect x="1100" y="500" width="100" height="100" fill="#343a40" />
<rect x="1120" y="520" width="60" height="60" fill="#ff0074" />
<rect x="1200" y="500" width="100" height="100" fill="#212529" />
<rect x="1220" y="520" width="60" height="60" fill="#ffd671" />
<rect x="1300" y="500" width="100" height="100" fill="#adb5bd" />
<rect x="1320" y="520" width="60" height="60" fill="#ff9847" />
<rect x="1400" y="500" width="100" height="100" fill="#343a40" />
<rect x="1420" y="520" width="60" height="60" fill="#ff9847" />
<rect x="0" y="600" width="100" height="100" fill="#343a40" />
<rect x="20" y="620" width="60" height="60" fill="#ff9847" />
<rect x="100" y="600" width="100" height="100" fill="#6c757d" />
<rect x="120" y="620" width="60" height="60" fill="#ffd671" />
<rect x="200" y="600" width="100" height="100" fill="#dee2e6" />
<rect x="220" y="620" width="60" height="60" fill="#ff9847" />
<rect x="300" y="600" width="100" height="100" fill="#495057" />
<rect x="320" y="620" width="60" height="60" fill="#ffd671" />
<rect x="400" y="600" width="100" height="100" fill="#f8f9fa" />
<rect x="420" y="620" width="60" height="60" fill="#eff89a" />
<rect x="500" y="600" width="100" height="100" fill="#adb5bd" />
<rect x="520" y="620" width="60" height="60" fill="#ffd671" />
<rect x="600" y="600" width="100" height="100" fill="#343a40" />
<rect x="620" y="620" width="60" height="60" fill="#eff89a" />
<rect x="700" y="600" width="100" height="100" fill="#e9ecef" />
<rect x="720" y="620" width="60" height="60" fill="#ff9847" />
<rect x="800" y="600" width="100" height="100" fill="#343a40" />
<rect x="820" y="620" width="60" height="60" fill="#ffd671" />
<rect x="900" y="600" width="100" height="100" fill="#adb5bd" />
<rect x="920" y="620" width="60" height="60" fill="#ff4648" />
<rect x="1000" y="600" width="100" height="100" fill="#495057" />
<rect x="1020" y="620" width="60" height="60" fill="#ff0074" />
<rect x="1100" y="600" width="100" height="100" fill="#6c757d" />
<rect x="1120" y="620" width="60" height="60" fill="#eff89a" />
<rect x="1200" y="600" width="100" height="100" fill="#f8f9fa" />
<rect x="1220" y="620" width="60" height="60" fill="#ffd671" />
<rect x="1300" y="600" width="100" height="100" fill="#212529" />
<rect x="1320" y="620" width="60" height="60" fill="#ff0074" />
<rect x="1400" y="600" width="100" height="100" fill="#ced4da" />
<rect x="1420" y="620" width="60" height="60" fill="#ff4648" />
<rect x="0" y="700" width="100" height="100" fill="#adb5bd" />
<rect x="20" y="720" width="60" height="60" fill="#ffd671" />
<rect x="100" y="700" width="100" height="100" fill="#343a40" />
<rect x="120" y="720" width="60" height="60" fill="#ff4648" />
<rect x="200" y="700" width="100" height="100" fill="#212529" />
<rect x="220" y="720" width="60" height="60" fill="#eff89a" />
<rect x="300" y="700" width="100" height="100" fill="#343a40" />
<rect x="320" y="720" width="60" height="60" fill="#ffd671" />
<rect x="400" y="700" width="100" height="100" fill="#f8f9fa" />
<rect x="420" y="720" width="60" height="60" fill="#eff89a" />
<rect x="500" y="700" width="100" height="100" fill="#e9ecef" />
<rect x="520" y="720" width="60" height="60" fill="#ff4648" />
<rect x="600" y="700" width="100" height="100" fill="#343a40" />
<rect x="620" y="720" width="60" height="60" fill="#ffd671" />
<rect x="700" y="700" width="100" height="100" fill="#495057" />
<rect x="720" y="720" width="60" height="60" fill="#eff89a" />
<rect x="800" y="700" width="100" height="100" fill="#495057" />
<rect x="820" y="720" width="60" height="60" fill="#ff0074" />
<rect x="900" y="700" width="100" height="100" fill="#212529" />
<rect x="920" y="720" width="60" height="60" fill="#ff9847" />
<rect x="1000" y="700" width="100" height="100" fill="#f8f9fa" />
<rect x="1020" y="720" width="60" height="60" fill="#ff0074" />
<rect x="1100" y="700" width="100" height="100" fill="#ced4da" />
<rect x="1120" y="720" width="60" height="60" fill="#ff9847" />
<rect x="1200" y="700" width="100" height="100" fill="#dee2e6" />
<rect x="1220" y="720" width="60" height="60" fill="#ffd671" />
<rect x="1300" y="700" width="100" height="100" fill="#adb5bd" />
<rect x="1320" y="720" width="60" height="60" fill="#ff9847" />
<rect x="1400" y="700" width="100" height="100" fill="#adb5bd" />
<rect x="1420" y="720" width="60" height="60" fill="#ffd671" />
<rect x="0" y="800" width="100" height="100" fill="#f8f9fa" />
<rect x="20" y="820" width="60" height="60" fill="#ff9847" />
<rect x="100" y="800" width="100" height="100" fill="#adb5bd" />
<rect x="120" y="820" width="60" height="60" fill="#eff89a" />
<rect x="200" y="800" width="100" height="100" fill="#343a40" />
<rect x="220" y="820" width="60" height="60" fill="#ff4648" />
<rect x="300" y="800" width="100" height="100" fill="#ced4da" />
<rect x="320" y="820" width="60" height="60" fill="#ff0074" />
<rect x="400" y="800" width="100" height="100" fill="#6c757d" />
<rect x="420" y="820" width="60" height="60" fill="#ffd671" />
<rect x="500" y="800" width="100" height="100" fill="#e9ecef" />
<rect x="520" y="820" width="60" height="60" fill="#ffd671" />
<rect x="600" y="800" width="100" height="100" fill="#e9ecef" />
<rect x="620" y="820" width="60" height="60" fill="#eff89a" />
<rect x="700" y="800" width="100" height="100" fill="#e9ecef" />
<rect x="720" y="820" width="60" height="60" fill="#ff0074" />
<rect x="800" y="800" width="100" height="100" fill="#f8f9fa" />
<rect x="820" y="820" width="60" height="60" fill="#ff9847" />
<rect x="900" y="800" width="100" height="100" fill="#f8f9fa" />
<rect x="920" y="820" width="60" height="60" fill="#ff0074" />
<rect x="1000" y="800" width="100" height="100" fill="#f8f9fa" />
<rect x="1020" y="820" width="60" height="60" fill="#eff89a" />
<rect x="1100" y="800" width="100" height="100" fill="#ced4da" />
<rect x="1120" y="820" width="60" height="60" fill="#ff4648" />
<rect x="1200" y="800" width="100" height="100" fill="#f8f9fa" />
<rect x="1220" y="820" width="60" height="60" fill="#eff89a" />
<rect x="1300" y="800" width="100" height="100" fill="#f8f9fa" />
<rect x="1320" y="820" width="60" height="60" fill="#ff4648" />
<rect x="1400" y="800" width="100" height="100" fill="#dee2e6" />
<rect x="1420" y="820" width="60" height="60" fill="#ff4648" />
<rect x="0" y="900" width="100" height="100" fill="#ced4da" />
<rect x="20" y="920" width="60" height="60" fill="#ff0074" />
<rect x="100" y="900" width="100" height="100" fill="#ced4da" />
<rect x="120" y="920" width="60" height="60" fill="#ff0074" />
<rect x="200" y="900" width="100" height="100" fill="#495057" />
<rect x="220" y="920" width="60" height="60" fill="#ffd671" />
<rect x="300" y="900" width="100" height="100" fill="#e9ecef" />
<rect x="320" y="920" width="60" height="60" fill="#ff9847" />
<rect x="400" y="900" width="100" height="100" fill="#212529" />
<rect x="420" y="920" width="60" height="60" fill="#ff9847" />
<rect x="500" y="900" width="100" height="100" fill="#e9ecef" />
<rect x="520" y="920" width="60" height="60" fill="#ff4648" />
<rect x="600" y="900" width="100" height="100" fill="#dee2e6" />
<rect x="620" y="920" width="60" height="60" fill="#ff0074" />
<rect x="700" y="900" width="100" height="100" fill="#343a40" />
<rect x="720" y="920" width="60" height="60" fill="#ff9847" />
<rect x="800" y="900" width="100" height="100" fill="#212529" />
<rect x="820" y="920" width="60" height="60" fill="#ffd671" />
<rect x="900" y="900" width="100" height="100" fill="#ced4da" />
<rect x="920" y="920" width="60" height="60" fill="#ff9847" />
<rect x="1000" y="900" width="100" height="100" fill="#212529" />
<rect x="1020" y="920" width="60" height="60" fill="#eff89a" />
<rect x="1100" y="900" width="100" height="100" fill="#dee2e6" />
<rect x="1120" y="920" width="60" height="60" fill="#ffd671" />
<rect x="1200" y="900" width="100" height="100" fill="#e9ecef" />
<rect x="1220" y="920" width="60" height="60" fill="#ff9847" />
<rect x="1300" y="900" width="100" height="100" fill="#e9ecef" />
<rect x="1320" y="920" width="60" height="60" fill="#ffd671" />
<rect x="1400" y="900" width="100" height="100" fill="#f8f9fa" />
<rect x="1420" y="920" width="60" height="60" fill="#ffd671" />
<rect x="0" y="1000" width="100" height="100" fill="#adb5bd" />
<rect x="20" y="1020" width="60" height="60" fill="#ff9847" />
<rect x="100" y="1000" width="100" height="100" fill="#212529" />
<rect x="120" y="1020" width="60" height="60" fill="#ff0074" />
<rect x="200" y="1000" width="100" height="100" fill="#dee2e6" />
<rect x="220" y="1020" width="60" height="60" fill="#ffd671" />
<rect x="300" y="1000" width="100" height="100" fill="#495057" />
<rect x="320" y="1020" width="60" height="60" fill="#ff0074" />
<rect x="400" y="1000" width="100" height="100" fill="#e9ecef" />
<rect x="420" y="1020" width="60" height="60" fill="#ff9847" />
<rect x="500" y="1000" width="100" height="100" fill="#6c757d" />
<rect x="520" y="1020" width="60" height="60" fill="#ff9847" />
<rect x="600" y="1000" width="100" height="100" fill="#dee2e6" />
<rect x="620" y="1020" width="60" height="60" fill="#ff4648" />
<rect x="700" y="1000" width="100" height="100" fill="#212529" />
<rect x="720" y="1020" width="60" height="60" fill="#ff0074" />
<rect x="800" y="1000" width="100" height="100" fill="#dee2e6" />
<rect x="820" y="1020" width="60" height="60" fill="#ff0074" />
<rect x="900" y="1000" width="100" height="100" fill="#adb5bd" />
<rect x="920" y="1020" width="60" height="60" fill="#ffd671" />
<rect x="1000" y="1000" width="100" height="100" fill="#343a40" />
<rect x="1020" y="1020" width="60" height="60" fill="#ff4648" />
<rect x="1100" y="1000" width="100" height="100" fill="#e9ecef" />
<rect x="1120" y="1020" width="60" height="60" fill="#ff9847" />
<rect x="1200" y="1000" width="100" height="100" fill="#adb5bd" />
<rect x="1220" y="1020" width="60" height="60" fill="#ff4648" />
<rect x="1300" y="1000" width="100" height="100" fill="#343a40" />
<rect x="1320" y="1020" width="60" height="60" fill="#eff89a" />
<rect x="1400" y="1000" width="100" height="100" fill="#dee2e6" />
<rect x="1420" y="1020" width="60" height="60" fill="#eff89a" />
<rect x="0" y="1100" width="100" height="100" fill="#dee2e6" />
<rect x="20" y="1120" width="60" height="60" fill="#eff89a" />
<rect x="100" y="1100" width="100" height="100" fill="#e9ecef" />
<rect x="120" y="1120" width="60" height="60" fill="#eff89a" />
<rect x="200" y="1100" width="100" height="100" fill="#212529" />
<rect x="220" y="1120" width="60" height="60" fill="#ff9847" />
<rect x="300" y="1100" width="100" height="100" fill="#495057" />
<rect x="320" y="1120" width="60" height="60" fill="#ff9847" />
<rect x="400" y="1100" width="100" height="100" fill="#e9ecef" />
<rect x="420" y="1120" width="60" height="60" fill="#ff9847" />
<rect x="500" y="1100" width="100" height="100" fill="#f8f9fa" />
<rect x="520" y="1120" width="60" height="60" fill="#ff9847" />
<rect x="600" y="1100" width="100" height="100" fill="#f8f9fa" />
<rect x="620" y="1120" width="60" height="60" fill="#ff9847" />
<rect x="700" y="1100" width="100" height="100" fill="#ced4da" />
<rect x="720" y="1120" width="60" height="60" fill="#ffd671" />
<rect x="800" y="1100" width="100" height="100" fill="#343a40" />
<rect x="820" y="1120" width="60" height="60" fill="#ff0074" />
<rect x="900" y="1100" width="100" height="100" fill="#343a40" />
<rect x="920" y="1120" width="60" height="60" fill="#ff4648" />
<rect x="1000" y="1100" width="100" height="100" fill="#dee2e6" />
<rect x="1020" y="1120" width="60" height="60" fill="#ffd671" />
<rect x="1100" y="1100" width="100" height="100" fill="#dee2e6" />
<rect x="1120" y="1120" width="60" height="60" fill="#ff0074" />
<rect x="1200" y="1100" width="100" height="100" fill="#212529" />
<rect x="1220" y="1120" width="60" height="60" fill="#ff0074" />
<rect x="1300" y="1100" width="100" height="100" fill="#495057" />
<rect x="1320" y="1120" width="60" height="60" fill="#ff4648" />
<rect x="1400" y="1100" width="100" height="100" fill="#6c757d" />
<rect x="1420" y="1120" width="60" height="60" fill="#eff89a" />
<rect x="0" y="1200" width="100" height="100" fill="#495057" />
<rect x="20" y="1220" width="60" height="60" fill="#eff89a" />
<rect x="100" y="1200" width="100" height="100" fill="#e9ecef" />
<rect x="120" y="1220" width="60" height="60" fill="#ff4648" />
<rect x="200" y="1200" width="100" height="100" fill="#adb5bd" />
<rect x="220" y="1220" width="60" height="60" fill="#ff0074" />
<rect x="300" y="1200" width="100" height="100" fill="#6c757d" />
<rect x="320" y="1220" width="60" height="60" fill="#ff0074" />
<rect x="400" y="1200" width="100" height="100" fill="#343a40" />
<rect x="420" y="1220" width="60" height="60" fill="#ff0074" />
<rect x="500" y="1200" width="100" height="100" fill="#adb5bd" />
<rect x="520" y="1220" width="60" height="60" fill="#ffd671" />
<rect x="600" y="1200" width="100" height="100" fill="#343a40" />
<rect x="620" y="1220" width="60" height="60" fill="#ffd671" />
<rect x="700" y="1200" width="100" height="100" fill="#212529" />
<rect x="720" y="1220" width="60" height="60" fill="#ff9847" />
<rect x="800" y="1200" width="100" height="100" fill="#6c757d" />
<rect x="820" y="1220" width="60" height="60" fill="#ff0074" />
<rect x="900" y="1200" width="100" height="100" fill="#f8f9fa" />
<rect x="920" y="1220" width="60" height="60" fill="#eff89a" />
<rect x="1000" y="1200" width="100" height="100" fill="#212529" />
<rect x="1020" y="1220" width="60" height="60" fill="#ffd671" />
<rect x="1100" y="1200" width="100" height="100" fill="#e9ecef" />
<rect x="1120" y="1220" width="60" height="60" fill="#eff89a" />
<rect x="1200" y="1200" width="100" height="100" fill="#495057" />
<rect x="1220" y="1220" width="60" height="60" fill="#eff89a" />
<rect x="1300" y="1200" width="100" height="100" fill="#ced4da" />
<rect x="1320" y="1220" width="60" height="60" fill="#ff9847" />
<rect x="1400" y="1200" width="100" height="100" fill="#adb5bd" />
<rect x="1420" y="1220" width="60" height="60" fill="#eff89a" />
<rect x="0" y="1300" width="100" height="100" fill="#495057" />
<rect x="20" y="1320" width="60" height="60" fill="#ff0074" />
<rect x="100" y="1300" width="100" height="100" fill="#212529" />
<rect x="120" y="1320" width="60" height="60" fill="#ff0074" />
<rect x="200" y="1300" width="100" height="100" fill="#f8f9fa" />
<rect x="220" y="1320" width="60" height="60" fill="#eff89a" />
<rect x="300" y="1300" width="100" height="100" fill="#6c757d" />
<rect x="320" y="1320" width="60" height="60" fill="#ff9847" />
<rect x="400" y="1300" width="100" height="100" fill="#6c757d" />
<rect x="420" y="1320" width="60" height="60" fill="#eff89a" />
<rect x="500" y="1300" width="100" height="100" fill="#dee2e6" />
<rect x="520" y="1320" width="60" height="60" fill="#ff0074" />
<rect x="600" y="1300" width="100" height="100" fill="#ced4da" />
<rect x="620" y="1320" width="60" height="60" fill="#ff0074" />
<rect x="700" y="1300" width="100" height="100" fill="#6c757d" />
<rect x="720" y="1320" width="60" height="60" fill="#ff4648" />
<rect x="800" y="1300" width="100" height="100" fill="#ced4da" />
<rect x="820" y="1320" width="60" height="60" fill="#ff9847" />
<rect x="900" y="1300" width="100" height="100" fill="#dee2e6" />
<rect x="920" y="1320" width="60" height="60" fill="#ff4648" />
<rect x="1000" y="1300" width="100" height="100" fill="#212529" />
<rect x="1020" y="1320" width="60" height="60" fill="#ff9847" />
<rect x="1100" y="1300" width="100" height="100" fill="#212529" />
<rect x="1120" y="1320" width="60" height="60" fill="#ff4648" />
<rect x="1200" y="1300" width="100" height="100" fill="#495057" />
<rect x="1220" y="1320" width="60" height="60" fill="#ffd671" />
<rect x="1300" y="1300" width="100" height="100" fill="#212529" />
<rect x="1320" y="1320" width="60" height="60" fill="#ff9847" />
<rect x="1400" y="1300" width="100" height="100" fill="#f8f9fa" />
<rect x="1420" y="1320" width="60" height="60" fill="#ff4648" />
<rect x="0" y="1400" width="100" height="100" fill="#f8f9fa" />
<rect x="20" y="1420" width="60" height="60" fill="#eff89a" />
<rect x="100" y="1400" width="100" height="100" fill="#f8f9fa" />
<rect x="120" y="1420" width="60" height="60" fill="#ffd671" />
<rect x="200" y="1400" width="100" height="100" fill="#495057" />
<rect x="220" y="1420" width="60" height="60" fill="#ff9847" />
<rect x="300" y="1400" width="100" height="100" fill="#ced4da" />
<rect x="320" y="1420" width="60" height="60" fill="#eff89a" />
<rect x="400" y="1400" width="100" height="100" fill="#e9ecef" />
<rect x="420" y="1420" width="60" height="60" fill="#ff4648" />
<rect x="500" y="1400" width="100" height="100" fill="#e9ecef" />
<rect x="520" y="1420" width="60" height="60" fill="#ff0074" />
<rect x="600" y="1400" width="100" height="100" fill="#343a40" />
<rect x="620" y="1420" width="60" height="60" fill="#ff9847" />
<rect x="700" y="1400" width="100" height="100" fill="#adb5bd" />
<rect x="720" y="1420" width="60" height="60" fill="#ff4648" />
<rect x="800" y="1400" width="100" height="100" fill="#e9ecef" />
<rect x="820" y="1420" width="60" height="60" fill="#ff0074" />
<rect x="900" y="1400" width="100" height="100" fill="#e9ecef" />
<rect x="920" y="1420" width="60" height="60" fill="#ff9847" />
<rect x="1000" y="1400" width="100" height="100" fill="#dee2e6" />
<rect x="1020" y="1420" width="60" height="60" fill="#ff4648" />
<rect x="1100" y="1400" width="100" height="100" fill="#f8f9fa" />
<rect x="1120" y="1420" width="60" height="60" fill="#ff9847" />
<rect x="1200" y="1400" width="100" height="100" fill="#343a40" />
<rect x="1220" y="1420" width="60" height="60" fill="#ffd671" />
<rect x="1300" y="1400" width="100" height="100" fill="#adb5bd" />
<rect x="1320" y="1420" width="60" height="60" fill="#eff89a" />
<rect x="1400" y="1400" width="100" height="100" fill="#ced4da" />
<rect x="1420" y="1420" width="60" height="60" fill="#ff4648" />
<text x="0" y="1620" style="font: bold 30px sans-serif;">Forground Palette (red to yellow)</text>
<rect x="0" y="1650" width="100" height="100" fill="#ff0074"/><text x="20" y="1770" style="font: 12px sans-serif;">#ff0074</text>
<rect x="100" y="1650" width="100" height="100" fill="#ff4648"/><text x="120" y="1770" style="font: 12px sans-serif;">#ff4648</text>
<rect x="200" y="1650" width="100" height="100" fill="#ff9847"/><text x="220" y="1770" style="font: 12px sans-serif;">#ff9847</text>
<rect x="300" y="1650" width="100" height="100" fill="#ffd671"/><text x="320" y="1770" style="font: 12px sans-serif;">#ffd671</text>
<rect x="400" y="1650" width="100" height="100" fill="#eff89a"/><text x="420" y="1770" style="font: 12px sans-serif;">#eff89a</text>

<text x="0" y="1820" style="font: bold 30px sans-serif;">Background Palette (background_palette_4)</text>
<rect x="0" y="1850" width="100" height="100" fill="#f8f9fa"/><text x="20" y="1970" style="font: 12px sans-serif;">#f8f9fa</text>
<rect x="100" y="1850" width="100" height="100" fill="#e9ecef"/><text x="120" y="1970" style="font: 12px sans-serif;">#e9ecef</text>
<rect x="200" y="1850" width="100" height="100" fill="#dee2e6"/><text x="220" y="1970" style="font: 12px sans-serif;">#dee2e6</text>
<rect x="300" y="1850" width="100" height="100" fill="#ced4da"/><text x="320" y="1970" style="font: 12px sans-serif;">#ced4da</text>
<rect x="400" y="1850" width="100" height="100" fill="#adb5bd"/><text x="420" y="1970" style="font: 12px sans-serif;">#adb5bd</text>
<rect x="500" y="1850" width="100" height="100" fill="#6c757d"/><text x="520" y="1970" style="font: 12px sans-serif;">#6c757d</text>
<rect x="600" y="1850" width="100" height="100" fill="#495057"/><text x="620" y="1970" style="font: 12px sans-serif;">#495057</text>
<rect x="700" y="1850" width="100" height="100" fill="#343a40"/><text x="720" y="1970" style="font: 12px sans-serif;">#343a40</text>
<rect x="800" y="1850" width="100" height="100" fill="#212529"/><text x="820" y="1970" style="font: 12px sans-serif;">#212529</text>
</svg>