<svg xmlns="http://www.w3.org/2000/svg"
            xmlns:xlink="http://www.w3.org/1999/xlink"
            version="1.1" 
            baseProfile="full"
            width="1500" height="2000"
            viewBox="0 0 1500 2000">
            <title>Opart by TCI</title>
            <desc>Generiert mit Python</desc>
<rect x="0" y="0" width="100" height="100" fill="#adb5bd" />
<polygon points="0,0 100,100 0,100" fill="#9c27b0" transform="translate(0,0)" /><rect x="100" y="0" width="100" height="100" fill="#ced4da" />
<polygon points="0,0 100,0 0,100" fill="#7b1fa2" transform="translate(100,0)" /><rect x="200" y="0" width="100" height="100" fill="#495057" />
<polygon points="0,0 100,0 0,100" fill="#ba68c8" transform="translate(200,0)" /><rect x="300" y="0" width="100" height="100" fill="#adb5bd" />
<polygon points="0,0 50,100 100,0" fill="#6a1b9a" transform="translate(300,0)" /><rect x="400" y="0" width="100" height="100" fill="#f8f9fa" />
<polygon points="0,0 50,100 100,0" fill="#8e24aa" transform="translate(400,0)" /><rect x="500" y="0" width="100" height="100" fill="#e9ecef" />
<polygon points="0,0 100,0 0,100" fill="#8e24aa" transform="translate(500,0)" /><rect x="600" y="0" width="100" height="100" fill="#ced4da" />
<polygon points="0,50 100,0 100,100" fill="#9c27b0" transform="translate(600,0)" /><rect x="700" y="0" width="100" height="100" fill="#212529" />
<polygon points="0,0 100,100 0,100" fill="#ba68c8" transform="translate(700,0)" /><rect x="800" y="0" width="100" height="100" fill="#adb5bd" />
<polygon points="0,100 50,0 100,100" fill="#6a1b9a" transform="translate(800,0)" /><rect x="900" y="0" width="100" height="100" fill="#adb5bd" />
<polygon points="0,100 50,0 100,100" fill="#6a1b9a" transform="translate(900,0)" /><rect x="1000" y="0" width="100" height="100" fill="#ced4da" />
<polygon points="0,0 100,50 0,100" fill="#f3e5f5" transform="translate(1000,0)" /><rect x="1100" y="0" width="100" height="100" fill="#dee2e6" />
<polygon points="0,0 100,100 0,100" fill="#ce93d8" transform="translate(1100,0)" /><rect x="1200" y="0" width="100" height="100" fill="#343a40" />
<polygon points="0,50 100,0 100,100" fill="#7b1fa2" transform="translate(1200,0)" /><rect x="1300" y="0" width="100" height="100" fill="#6c757d" />
<polygon points="0,0 100,0 100,100" fill="#ab47bc" transform="translate(1300,0)" /><rect x="1400" y="0" width="100" height="100" fill="#6c757d" />
<polygon points="0,100 50,0 100,100" fill="#8e24aa" transform="translate(1400,0)" /><rect x="0" y="100" width="100" height="100" fill="#212529" />
<polygon points="0,0 100,50 0,100" fill="#9c27b0" transform="translate(0,100)" /><rect x="100" y="100" width="100" height="100" fill="#212529" />
<polygon points="0,50 100,0 100,100" fill="#ce93d8" transform="translate(100,100)" /><rect x="200" y="100" width="100" height="100" fill="#dee2e6" />
<polygon points="0,50 100,0 100,100" fill="#4a148c" transform="translate(200,100)" /><rect x="300" y="100" width="100" height="100" fill="#495057" />
<polygon points="0,100 50,0 100,100" fill="#9c27b0" transform="translate(300,100)" /><rect x="400" y="100" width="100" height="100" fill="#ced4da" />
<polygon points="100,0 100,100 0,100" fill="#ce93d8" transform="translate(400,100)" /><rect x="500" y="100" width="100" height="100" fill="#495057" />
<polygon points="100,0 100,100 0,100" fill="#7b1fa2" transform="translate(500,100)" /><rect x="600" y="100" width="100" height="100" fill="#495057" />
<polygon points="0,0 100,0 0,100" fill="#8e24aa" transform="translate(600,100)" /><rect x="700" y="100" width="100" height="100" fill="#adb5bd" />
<polygon points="0,0 50,100 100,0" fill="#ab47bc" transform="translate(700,100)" /><rect x="800" y="100" width="100" height="100" fill="#495057" />
<polygon points="0,100 50,0 100,100" fill="#f3e5f5" transform="translate(800,100)" /><rect x="900" y="100" width="100" height="100" fill="#f8f9fa" />
<polygon points="0,0 100,100 0,100" fill="#f3e5f5" transform="translate(900,100)" /><rect x="1000" y="100" width="100" height="100" fill="#212529" />
<polygon points="0,0 100,100 0,100" fill="#7b1fa2" transform="translate(1000,100)" /><rect x="1100" y="100" width="100" height="100" fill="#343a40" />
<polygon points="0,0 50,100 100,0" fill="#8e24aa" transform="translate(1100,100)" /><rect x="1200" y="100" width="100" height="100" fill="#e9ecef" />
<polygon points="0,50 100,0 100,100" fill="#f3e5f5" transform="translate(1200,100)" /><rect x="1300" y="100" width="100" height="100" fill="#6c757d" />
<polygon points="0,0 100,50 0,100" fill="#ab47bc" transform="translate(1300,100)" /><rect x="1400" y="100" width="100" height="100" fill="#495057" />
<polygon points="0,100 50,0 100,100" fill="#8e24aa" transform="translate(1400,100)" /><rect x="0" y="200" width="100" height="100" fill="#e9ecef" />
<polygon points="0,0 100,0 100,100" fill="#ce93d8" transform="translate(0,200)" /><rect x="100" y="200" width="100" height="100" fill="#495057" />
<polygon points="0,0 100,50 0,100" fill="#4a148c" transform="translate(100,200)" /><rect x="200" y="200" width="100" height="100" fill="#ced4da" />
<polygon points="0,0 100,0 0,100" fill="#ce93d8" transform="translate(200,200)" /><rect x="300" y="200" width="100" height="100" fill="#e9ecef" />
<polygon points="0,0 100,100 0,100" fill="#ce93d8" transform="translate(300,200)" /><rect x="400" y="200" width="100" height="100" fill="#343a40" />
<polygon points="0,0 100,50 0,100" fill="#4a148c" transform="translate(400,200)" /><rect x="500" y="200" width="100" height="100" fill="#ced4da" />
<polygon points="0,50 100,0 100,100" fill="#e1bee7" transform="translate(500,200)" /><rect x="600" y="200" width="100" height="100" fill="#6c757d" />
<polygon points="0,0 50,100 100,0" fill="#6a1b9a" transform="translate(600,200)" /><rect x="700" y="200" width="100" height="100" fill="#f8f9fa" />
<polygon points="0,0 100,0 0,100" fill="#ab47bc" transform="translate(700,200)" /><rect x="800" y="200" width="100" height="100" fill="#ced4da" />
<polygon points="0,0 100,50 0,100" fill="#ab47bc" transform="translate(800,200)" /><rect x="900" y="200" width="100" height="100" fill="#f8f9fa" />
<polygon points="0,50 100,0 100,100" fill="#ba68c8" transform="translate(900,200)" /><rect x="1000" y="200" width="100" height="100" fill="#212529" />
<polygon points="0,50 100,0 100,100" fill="#9c27b0" transform="translate(1000,200)" /><rect x="1100" y="200" width="100" height="100" fill="#6c757d" />
<polygon points="0,0 100,50 0,100" fill="#ab47bc" transform="translate(1100,200)" /><rect x="1200" y="200" width="100" height="100" fill="#ced4da" />
<polygon points="0,0 50,100 100,0" fill="#8e24aa" transform="translate(1200,200)" /><rect x="1300" y="200" width="100" height="100" fill="#f8f9fa" />
<polygon points="0,0 100,0 100,100" fill="#8e24aa" transform="translate(1300,200)" /><rect x="1400" y="200" width="100" height="100" fill="#495057" />
<polygon points="0,0 100,0 0,100" fill="#4a148c" transform="translate(1400,200)" /><rect x="0" y="300" width="100" height="100" fill="#e9ecef" />
<polygon points="0,0 100,0 100,100" fill="#e1bee7" transform="translate(0,300)" /><rect x="100" y="300" width="100" height="100" fill="#adb5bd" />
<polygon points="0,0 100,50 0,100" fill="#9c27b0" transform="translate(100,300)" /><rect x="200" y="300" width="100" height="100" fill="#f8f9fa" />
<polygon points="0,50 100,0 100,100" fill="#4a148c" transform="translate(200,300)" /><rect x="300" y="300" width="100" height="100" fill="#495057" />
<polygon points="0,0 50,100 100,0" fill="#e1bee7" transform="translate(300,300)" /><rect x="400" y="300" width="100" height="100" fill="#adb5bd" />
<polygon points="0,100 50,0 100,100" fill="#9c27b0" transform="translate(400,300)" /><rect x="500" y="300" width="100" height="100" fill="#dee2e6" />
<polygon points="0,0 100,0 100,100" fill="#ce93d8" transform="translate(500,300)" /><rect x="600" y="300" width="100" height="100" fill="#343a40" />
<polygon points="0,0 100,50 0,100" fill="#8e24aa" transform="translate(600,300)" /><rect x="700" y="300" width="100" height="100" fill="#212529" />
<polygon points="0,0 100,0 0,100" fill="#9c27b0" transform="translate(700,300)" /><rect x="800" y="300" width="100" height="100" fill="#343a40" />
<polygon points="0,100 50,0 100,100" fill="#7b1fa2" transform="translate(800,300)" /><rect x="900" y="300" width="100" height="100" fill="#e9ecef" />
<polygon points="0,0 100,50 0,100" fill="#4a148c" transform="translate(900,300)" /><rect x="1000" y="300" width="100" height="100" fill="#dee2e6" />
<polygon points="0,0 100,50 0,100" fill="#4a148c" transform="translate(1000,300)" /><rect x="1100" y="300" width="100" height="100" fill="#e9ecef" />
<polygon points="0,0 100,100 0,100" fill="#4a148c" transform="translate(1100,300)" /><rect x="1200" y="300" width="100" height="100" fill="#e9ecef" />
<polygon points="0,0 100,0 100,100" fill="#ce93d8" transform="translate(1200,300)" /><rect x="1300" y="300" width="100" height="100" fill="#343a40" />
<polygon points="100,0 100,100 0,100" fill="#8e24aa" transform="translate(1300,300)" /><rect x="1400" y="300" width="100" height="100" fill="#f8f9fa" />
<polygon points="0,50 100,0 100,100" fill="#ce93d8" transform="translate(1400,300)" /><rect x="0" y="400" width="100" height="100" fill="#adb5bd" />
<polygon points="0,0 100,50 0,100" fill="#ab47bc" transform="translate(0,400)" /><rect x="100" y="400" width="100" height="100" fill="#e9ecef" />
<polygon points="0,0 100,0 100,100" fill="#8e24aa" transform="translate(100,400)" /><rect x="200" y="400" width="100" height="100" fill="#adb5bd" />
<polygon points="0,0 50,100 100,0" fill="#9c27b0" transform="translate(200,400)" /><rect x="300" y="400" width="100" height="100" fill="#dee2e6" />
<polygon points="0,0 100,0 100,100" fill="#ab47bc" transform="translate(300,400)" /><rect x="400" y="400" width="100" height="100" fill="#6c757d" />
<polygon points="0,0 100,0 0,100" fill="#8e24aa" transform="translate(400,400)" /><rect x="500" y="400" width="100" height="100" fill="#6c757d" />
<polygon points="0,0 100,50 0,100" fill="#f3e5f5" transform="translate(500,400)" /><rect x="600" y="400" width="100" height="100" fill="#343a40" />
<polygon points="0,0 100,100 0,100" fill="#4a148c" transform="translate(600,400)" /><rect x="700" y="400" width="100" height="100" fill="#e9ecef" />
<polygon points="100,0 100,100 0,100" fill="#6a1b9a" transform="translate(700,400)" /><rect x="800" y="400" width="100" height="100" fill="#f8f9fa" />
<polygon points="0,50 100,0 100,100" fill="#ba68c8" transform="translate(800,400)" /><rect x="900" y="400" width="100" height="100" fill="#212529" />
<polygon points="0,50 100,0 100,100" fill="#ba68c8" transform="translate(900,400)" /><rect x="1000" y="400" width="100" height="100" fill="#adb5bd" />
<polygon points="100,0 100,100 0,100" fill="#8e24aa" transform="translate(1000,400)" /><rect x="1100" y="400" width="100" height="100" fill="#6c757d" />
<polygon points="0,0 100,0 100,100" fill="#e1bee7" transform="translate(1100,400)" /><rect x="1200" y="400" width="100" height="100" fill="#f8f9fa" />
<polygon points="0,0 100,50 0,100" fill="#ab47bc" transform="translate(1200,400)" /><rect x="1300" y="400" width="100" height="100" fill="#6c757d" />
<polygon points="0,0 100,0 100,100" fill="#4a148c" transform="translate(1300,400)" /><rect x="1400" y="400" width="100" height="100" fill="#adb5bd" />
<polygon points="0,0 100,0 0,100" fill="#4a148c" transform="translate(1400,400)" /><rect x="0" y="500" width="100" height="100" fill="#e9ecef" />
<polygon points="0,0 50,100 100,0" fill="#e1bee7" transform="translate(0,500)" /><rect x="100" y="500" width="100" height="100" fill="#f8f9fa" />
<polygon points="0,0 100,100 0,100" fill="#f3e5f5" transform="translate(100,500)" /><rect x="200" y="500" width="100" height="100" fill="#ced4da" />
<polygon points="0,0 100,0 0,100" fill="#9c27b0" transform="translate(200,500)" /><rect x="300" y="500" width="100" height="100" fill="#212529" />
<polygon points="0,0 100,0 0,100" fill="#ba68c8" transform="translate(300,500)" /><rect x="400" y="500" width="100" height="100" fill="#6c757d" />
<polygon points="0,0 100,0 0,100" fill="#e1bee7" transform="translate(400,500)" /><rect x="500" y="500" width="100" height="100" fill="#343a40" />
<polygon points="0,0 100,50 0,100" fill="#ab47bc" transform="translate(500,500)" /><rect x="600" y="500" width="100" height="100" fill="#495057" />
<polygon points="0,0 100,0 100,100" fill="#e1bee7" transform="translate(600,500)" /><rect x="700" y="500" width="100" height="100" fill="#dee2e6" />
<polygon points="100,0 100,100 0,100" fill="#e1bee7" transform="translate(700,500)" /><rect x="800" y="500" width="100" height="100" fill="#dee2e6" />
<polygon points="0,0 100,100 0,100" fill="#8e24aa" transform="translate(800,500)" /><rect x="900" y="500" width="100" height="100" fill="#6c757d" />
<polygon points="0,0 100,100 0,100" fill="#ce93d8" transform="translate(900,500)" /><rect x="1000" y="500" width="100" height="100" fill="#495057" />
<polygon points="0,0 100,0 100,100" fill="#8e24aa" transform="translate(1000,500)" /><rect x="1100" y="500" width="100" height="100" fill="#f8f9fa" />
<polygon points="0,0 50,100 100,0" fill="#e1bee7" transform="translate(1100,500)" /><rect x="1200" y="500" width="100" height="100" fill="#f8f9fa" />
<polygon points="100,0 100,100 0,100" fill="#ba68c8" transform="translate(1200,500)" /><rect x="1300" y="500" width="100" height="100" fill="#6c757d" />
<polygon points="0,0 100,0 100,100" fill="#7b1fa2" transform="translate(1300,500)" /><rect x="1400" y="500" width="100" height="100" fill="#dee2e6" />
<polygon points="100,0 100,100 0,100" fill="#ce93d8" transform="translate(1400,500)" /><rect x="0" y="600" width="100" height="100" fill="#dee2e6" />
<polygon points="0,0 100,50 0,100" fill="#ab47bc" transform="translate(0,600)" /><rect x="100" y="600" width="100" height="100" fill="#6c757d" />
<polygon points="0,0 100,100 0,100" fill="#8e24aa" transform="translate(100,600)" /><rect x="200" y="600" width="100" height="100" fill="#dee2e6" />
<polygon points="0,0 50,100 100,0" fill="#6a1b9a" transform="translate(200,600)" /><rect x="300" y="600" width="100" height="100" fill="#adb5bd" />
<polygon points="100,0 100,100 0,100" fill="#f3e5f5" transform="translate(300,600)" /><rect x="400" y="600" width="100" height="100" fill="#f8f9fa" />
<polygon points="100,0 100,100 0,100" fill="#e1bee7" transform="translate(400,600)" /><rect x="500" y="600" width="100" height="100" fill="#e9ecef" />
<polygon points="100,0 100,100 0,100" fill="#ab47bc" transform="translate(500,600)" /><rect x="600" y="600" width="100" height="100" fill="#e9ecef" />
<polygon points="0,0 100,0 100,100" fill="#9c27b0" transform="translate(600,600)" /><rect x="700" y="600" width="100" height="100" fill="#e9ecef" />
<polygon points="100,0 100,100 0,100" fill="#4a148c" transform="translate(700,600)" /><rect x="800" y="600" width="100" height="100" fill="#e9ecef" />
<polygon points="0,100 50,0 100,100" fill="#6a1b9a" transform="translate(800,600)" /><rect x="900" y="600" width="100" height="100" fill="#dee2e6" />
<polygon points="0,0 100,100 0,100" fill="#ab47bc" transform="translate(900,600)" /><rect x="1000" y="600" width="100" height="100" fill="#212529" />
<polygon points="0,100 50,0 100,100" fill="#ce93d8" transform="translate(1000,600)" /><rect x="1100" y="600" width="100" height="100" fill="#212529" />
<polygon points="0,50 100,0 100,100" fill="#7b1fa2" transform="translate(1100,600)" /><rect x="1200" y="600" width="100" height="100" fill="#dee2e6" />
<polygon points="0,0 100,50 0,100" fill="#ab47bc" transform="translate(1200,600)" /><rect x="1300" y="600" width="100" height="100" fill="#6c757d" />
<polygon points="0,0 100,0 100,100" fill="#8e24aa" transform="translate(1300,600)" /><rect x="1400" y="600" width="100" height="100" fill="#212529" />
<polygon points="100,0 100,100 0,100" fill="#7b1fa2" transform="translate(1400,600)" /><rect x="0" y="700" width="100" height="100" fill="#343a40" />
<polygon points="0,0 50,100 100,0" fill="#f3e5f5" transform="translate(0,700)" /><rect x="100" y="700" width="100" height="100" fill="#f8f9fa" />
<polygon points="0,50 100,0 100,100" fill="#8e24aa" transform="translate(100,700)" /><rect x="200" y="700" width="100" height="100" fill="#212529" />
<polygon points="0,0 100,50 0,100" fill="#9c27b0" transform="translate(200,700)" /><rect x="300" y="700" width="100" height="100" fill="#495057" />
<polygon points="0,100 50,0 100,100" fill="#f3e5f5" transform="translate(300,700)" /><rect x="400" y="700" width="100" height="100" fill="#212529" />
<polygon points="0,0 100,50 0,100" fill="#ab47bc" transform="translate(400,700)" /><rect x="500" y="700" width="100" height="100" fill="#6c757d" />
<polygon points="0,0 50,100 100,0" fill="#ba68c8" transform="translate(500,700)" /><rect x="600" y="700" width="100" height="100" fill="#adb5bd" />
<polygon points="0,0 50,100 100,0" fill="#f3e5f5" transform="translate(600,700)" /><rect x="700" y="700" width="100" height="100" fill="#f8f9fa" />
<polygon points="0,50 100,0 100,100" fill="#8e24aa" transform="translate(700,700)" /><rect x="800" y="700" width="100" height="100" fill="#343a40" />
<polygon points="100,0 100,100 0,100" fill="#ba68c8" transform="translate(800,700)" /><rect x="900" y="700" width="100" height="100" fill="#dee2e6" />
<polygon points="0,0 50,100 100,0" fill="#f3e5f5" transform="translate(900,700)" /><rect x="1000" y="700" width="100" height="100" fill="#6c757d" />
<polygon points="0,100 50,0 100,100" fill="#ab47bc" transform="translate(1000,700)" /><rect x="1100" y="700" width="100" height="100" fill="#adb5bd" />
<polygon points="0,0 100,100 0,100" fill="#f3e5f5" transform="translate(1100,700)" /><rect x="1200" y="700" width="100" height="100" fill="#f8f9fa" />
<polygon points="0,0 100,50 0,100" fill="#ce93d8" transform="translate(1200,700)" /><rect x="1300" y="700" width="100" height="100" fill="#6c757d" />
<polygon points="100,0 100,100 0,100" fill="#ab47bc" transform="translate(1300,700)" /><rect x="1400" y="700" width="100" height="100" fill="#212529" />
<polygon points="0,0 100,0 0,100" fill="#4a148c" transform="translate(1400,700)" /><rect x="0" y="800" width="100" height="100" fill="#adb5bd" />
<polygon points="0,50 100,0 100,100" fill="#ab47bc" transform="translate(0,800)" /><rect x="100" y="800" width="100" height="100" fill="#343a40" />
<polygon points="0,100 50,0 100,100" fill="#ce93d8" transform="translate(100,800)" /><rect x="200" y="800" width="100" height="100" fill="#e9ecef" />
<polygon points="0,50 100,0 100,100" fill="#8e24aa" transform="translate(200,800)" /><rect x="300" y="800" width="100" height="100" fill="#ced4da" />
<polygon points="0,0 100,0 0,100" fill="#7b1fa2" transform="translate(300,800)" /><rect x="400" y="800" width="100" height="100" fill="#343a40" />
<polygon points="0,0 100,0 0,100" fill="#ab47bc" transform="translate(400,800)" /><rect x="500" y="800" width="100" height="100" fill="#ced4da" />
<polygon points="0,0 100,0 100,100" fill="#e1bee7" transform="translate(500,800)" /><rect x="600" y="800" width="100" height="100" fill="#ced4da" />
<polygon points="0,0 100,100 0,100" fill="#6a1b9a" transform="translate(600,800)" /><rect x="700" y="800" width="100" height="100" fill="#adb5bd" />
<polygon points="0,0 50,100 100,0" fill="#6a1b9a" transform="translate(700,800)" /><rect x="800" y="800" width="100" height="100" fill="#495057" />
<polygon points="0,50 100,0 100,100" fill="#ce93d8" transform="translate(800,800)" /><rect x="900" y="800" width="100" height="100" fill="#6c757d" />
<polygon points="0,50 100,0 100,100" fill="#8e24aa" transform="translate(900,800)" /><rect x="1000" y="800" width="100" height="100" fill="#e9ecef" />
<polygon points="0,0 50,100 100,0" fill="#ce93d8" transform="translate(1000,800)" /><rect x="1100" y="800" width="100" height="100" fill="#ced4da" />
<polygon points="0,0 100,0 0,100" fill="#8e24aa" transform="translate(1100,800)" /><rect x="1200" y="800" width="100" height="100" fill="#495057" />
<polygon points="0,0 100,100 0,100" fill="#9c27b0" transform="translate(1200,800)" /><rect x="1300" y="800" width="100" height="100" fill="#343a40" />
<polygon points="0,0 100,100 0,100" fill="#4a148c" transform="translate(1300,800)" /><rect x="1400" y="800" width="100" height="100" fill="#e9ecef" />
<polygon points="100,0 100,100 0,100" fill="#7b1fa2" transform="translate(1400,800)" /><rect x="0" y="900" width="100" height="100" fill="#6c757d" />
<polygon points="0,100 50,0 100,100" fill="#f3e5f5" transform="translate(0,900)" /><rect x="100" y="900" width="100" height="100" fill="#e9ecef" />
<polygon points="0,0 100,0 100,100" fill="#ba68c8" transform="translate(100,900)" /><rect x="200" y="900" width="100" height="100" fill="#343a40" />
<polygon points="100,0 100,100 0,100" fill="#ce93d8" transform="translate(200,900)" /><rect x="300" y="900" width="100" height="100" fill="#dee2e6" />
<polygon points="0,0 100,0 0,100" fill="#ab47bc" transform="translate(300,900)" /><rect x="400" y="900" width="100" height="100" fill="#f8f9fa" />
<polygon points="0,0 100,0 0,100" fill="#ba68c8" transform="translate(400,900)" /><rect x="500" y="900" width="100" height="100" fill="#f8f9fa" />
<polygon points="0,0 100,50 0,100" fill="#f3e5f5" transform="translate(500,900)" /><rect x="600" y="900" width="100" height="100" fill="#dee2e6" />
<polygon points="0,0 100,0 0,100" fill="#ce93d8" transform="translate(600,900)" /><rect x="700" y="900" width="100" height="100" fill="#adb5bd" />
<polygon points="100,0 100,100 0,100" fill="#ce93d8" transform="translate(700,900)" /><rect x="800" y="900" width="100" height="100" fill="#dee2e6" />
<polygon points="0,0 50,100 100,0" fill="#ba68c8" transform="translate(800,900)" /><rect x="900" y="900" width="100" height="100" fill="#495057" />
<polygon points="0,50 100,0 100,100" fill="#4a148c" transform="translate(900,900)" /><rect x="1000" y="900" width="100" height="100" fill="#f8f9fa" />
<polygon points="0,0 100,50 0,100" fill="#ba68c8" transform="translate(1000,900)" /><rect x="1100" y="900" width="100" height="100" fill="#6c757d" />
<polygon points="0,0 100,100 0,100" fill="#e1bee7" transform="translate(1100,900)" /><rect x="1200" y="900" width="100" height="100" fill="#adb5bd" />
<polygon points="0,0 100,100 0,100" fill="#6a1b9a" transform="translate(1200,900)" /><rect x="1300" y="900" width="100" height="100" fill="#ced4da" />
<polygon points="0,0 100,50 0,100" fill="#9c27b0" transform="translate(1300,900)" /><rect x="1400" y="900" width="100" height="100" fill="#f8f9fa" />
<polygon points="0,50 100,0 100,100" fill="#e1bee7" transform="translate(1400,900)" /><rect x="0" y="1000" width="100" height="100" fill="#ced4da" />
<polygon points="100,0 100,100 0,100" fill="#9c27b0" transform="translate(0,1000)" /><rect x="100" y="1000" width="100" height="100" fill="#f8f9fa" />
<polygon points="0,0 100,0 0,100" fill="#8e24aa" transform="translate(100,1000)" /><rect x="200" y="1000" width="100" height="100" fill="#ced4da" />
<polygon points="0,100 50,0 100,100" fill="#6a1b9a" transform="translate(200,1000)" /><rect x="300" y="1000" width="100" height="100" fill="#495057" />
<polygon points="100,0 100,100 0,100" fill="#ba68c8" transform="translate(300,1000)" /><rect x="400" y="1000" width="100" height="100" fill="#6c757d" />
<polygon points="0,0 100,0 0,100" fill="#f3e5f5" transform="translate(400,1000)" /><rect x="500" y="1000" width="100" height="100" fill="#ced4da" />
<polygon points="0,0 100,0 0,100" fill="#7b1fa2" transform="translate(500,1000)" /><rect x="600" y="1000" width="100" height="100" fill="#343a40" />
<polygon points="0,0 100,50 0,100" fill="#f3e5f5" transform="translate(600,1000)" /><rect x="700" y="1000" width="100" height="100" fill="#ced4da" />
<polygon points="0,0 100,50 0,100" fill="#e1bee7" transform="translate(700,1000)" /><rect x="800" y="1000" width="100" height="100" fill="#212529" />
<polygon points="0,100 50,0 100,100" fill="#7b1fa2" transform="translate(800,1000)" /><rect x="900" y="1000" width="100" height="100" fill="#6c757d" />
<polygon points="0,0 100,50 0,100" fill="#f3e5f5" transform="translate(900,1000)" /><rect x="1000" y="1000" width="100" height="100" fill="#e9ecef" />
<polygon points="0,0 100,0 0,100" fill="#8e24aa" transform="translate(1000,1000)" /><rect x="1100" y="1000" width="100" height="100" fill="#343a40" />
<polygon points="0,0 100,50 0,100" fill="#7b1fa2" transform="translate(1100,1000)" /><rect x="1200" y="1000" width="100" height="100" fill="#ced4da" />
<polygon points="0,0 100,0 100,100" fill="#f3e5f5" transform="translate(1200,1000)" /><rect x="1300" y="1000" width="100" height="100" fill="#ced4da" />
<polygon points="100,0 100,100 0,100" fill="#6a1b9a" transform="translate(1300,1000)" /><rect x="1400" y="1000" width="100" height="100" fill="#adb5bd" />
<polygon points="0,50 100,0 100,100" fill="#4a148c" transform="translate(1400,1000)" /><rect x="0" y="1100" width="100" height="100" fill="#dee2e6" />
<polygon points="0,50 100,0 100,100" fill="#ba68c8" transform="translate(0,1100)" /><rect x="100" y="1100" width="100" height="100" fill="#f8f9fa" />
<polygon points="0,0 100,100 0,100" fill="#e1bee7" transform="translate(100,1100)" /><rect x="200" y="1100" width="100" height="100" fill="#f8f9fa" />
<polygon points="0,0 50,100 100,0" fill="#ab47bc" transform="translate(200,1100)" /><rect x="300" y="1100" width="100" height="100" fill="#dee2e6" />
<polygon points="0,0 50,100 100,0" fill="#8e24aa" transform="translate(300,1100)" /><rect x="400" y="1100" width="100" height="100" fill="#dee2e6" />
<polygon points="100,0 100,100 0,100" fill="#8e24aa" transform="translate(400,1100)" /><rect x="500" y="1100" width="100" height="100" fill="#adb5bd" />
<polygon points="100,0 100,100 0,100" fill="#8e24aa" transform="translate(500,1100)" /><rect x="600" y="1100" width="100" height="100" fill="#495057" />
<polygon points="0,50 100,0 100,100" fill="#e1bee7" transform="translate(600,1100)" /><rect x="700" y="1100" width="100" height="100" fill="#6c757d" />
<polygon points="0,0 50,100 100,0" fill="#f3e5f5" transform="translate(700,1100)" /><rect x="800" y="1100" width="100" height="100" fill="#6c757d" />
<polygon points="0,0 50,100 100,0" fill="#7b1fa2" transform="translate(800,1100)" /><rect x="900" y="1100" width="100" height="100" fill="#adb5bd" />
<polygon points="0,0 100,0 100,100" fill="#9c27b0" transform="translate(900,1100)" /><rect x="1000" y="1100" width="100" height="100" fill="#343a40" />
<polygon points="0,50 100,0 100,100" fill="#e1bee7" transform="translate(1000,1100)" /><rect x="1100" y="1100" width="100" height="100" fill="#6c757d" />
<polygon points="0,0 100,100 0,100" fill="#ce93d8" transform="translate(1100,1100)" /><rect x="1200" y="1100" width="100" height="100" fill="#6c757d" />
<polygon points="0,50 100,0 100,100" fill="#f3e5f5" transform="translate(1200,1100)" /><rect x="1300" y="1100" width="100" height="100" fill="#495057" />
<polygon points="0,50 100,0 100,100" fill="#e1bee7" transform="translate(1300,1100)" /><rect x="1400" y="1100" width="100" height="100" fill="#212529" />
<polygon points="0,0 100,100 0,100" fill="#ce93d8" transform="translate(1400,1100)" /><rect x="0" y="1200" width="100" height="100" fill="#495057" />
<polygon points="0,0 100,50 0,100" fill="#ce93d8" transform="translate(0,1200)" /><rect x="100" y="1200" width="100" height="100" fill="#6c757d" />
<polygon points="100,0 100,100 0,100" fill="#ba68c8" transform="translate(100,1200)" /><rect x="200" y="1200" width="100" height="100" fill="#ced4da" />
<polygon points="0,50 100,0 100,100" fill="#ce93d8" transform="translate(200,1200)" /><rect x="300" y="1200" width="100" height="100" fill="#dee2e6" />
<polygon points="0,0 50,100 100,0" fill="#ce93d8" transform="translate(300,1200)" /><rect x="400" y="1200" width="100" height="100" fill="#495057" />
<polygon points="0,50 100,0 100,100" fill="#ab47bc" transform="translate(400,1200)" /><rect x="500" y="1200" width="100" height="100" fill="#495057" />
<polygon points="0,0 100,0 0,100" fill="#ba68c8" transform="translate(500,1200)" /><rect x="600" y="1200" width="100" height="100" fill="#495057" />
<polygon points="0,100 50,0 100,100" fill="#e1bee7" transform="translate(600,1200)" /><rect x="700" y="1200" width="100" height="100" fill="#f8f9fa" />
<polygon points="0,0 50,100 100,0" fill="#8e24aa" transform="translate(700,1200)" /><rect x="800" y="1200" width="100" height="100" fill="#dee2e6" />
<polygon points="0,0 100,50 0,100" fill="#f3e5f5" transform="translate(800,1200)" /><rect x="900" y="1200" width="100" height="100" fill="#212529" />
<polygon points="0,0 100,0 100,100" fill="#9c27b0" transform="translate(900,1200)" /><rect x="1000" y="1200" width="100" height="100" fill="#343a40" />
<polygon points="0,0 100,0 100,100" fill="#ce93d8" transform="translate(1000,1200)" /><rect x="1100" y="1200" width="100" height="100" fill="#adb5bd" />
<polygon points="0,0 100,0 100,100" fill="#9c27b0" transform="translate(1100,1200)" /><rect x="1200" y="1200" width="100" height="100" fill="#ced4da" />
<polygon points="0,0 50,100 100,0" fill="#f3e5f5" transform="translate(1200,1200)" /><rect x="1300" y="1200" width="100" height="100" fill="#f8f9fa" />
<polygon points="0,0 100,0 0,100" fill="#f3e5f5" transform="translate(1300,1200)" /><rect x="1400" y="1200" width="100" height="100" fill="#6c757d" />
<polygon points="100,0 100,100 0,100" fill="#f3e5f5" transform="translate(1400,1200)" /><rect x="0" y="1300" width="100" height="100" fill="#343a40" />
<polygon points="0,0 100,50 0,100" fill="#9c27b0" transform="translate(0,1300)" /><rect x="100" y="1300" width="100" height="100" fill="#212529" />
<polygon points="0,50 100,0 100,100" fill="#ba68c8" transform="translate(100,1300)" /><rect x="200" y="1300" width="100" height="100" fill="#dee2e6" />
<polygon points="0,50 100,0 100,100" fill="#e1bee7" transform="translate(200,1300)" /><rect x="300" y="1300" width="100" height="100" fill="#212529" />
<polygon points="0,0 100,50 0,100" fill="#ab47bc" transform="translate(300,1300)" /><rect x="400" y="1300" width="100" height="100" fill="#f8f9fa" />
<polygon points="0,0 100,100 0,100" fill="#ce93d8" transform="translate(400,1300)" /><rect x="500" y="1300" width="100" height="100" fill="#495057" />
<polygon points="0,0 100,100 0,100" fill="#f3e5f5" transform="translate(500,1300)" /><rect x="600" y="1300" width="100" height="100" fill="#e9ecef" />
<polygon points="0,0 100,50 0,100" fill="#4a148c" transform="translate(600,1300)" /><rect x="700" y="1300" width="100" height="100" fill="#ced4da" />
<polygon points="0,50 100,0 100,100" fill="#8e24aa" transform="translate(700,1300)" /><rect x="800" y="1300" width="100" height="100" fill="#6c757d" />
<polygon points="0,0 100,50 0,100" fill="#f3e5f5" transform="translate(800,1300)" /><rect x="900" y="1300" width="100" height="100" fill="#ced4da" />
<polygon points="0,0 100,0 0,100" fill="#4a148c" transform="translate(900,1300)" /><rect x="1000" y="1300" width="100" height="100" fill="#ced4da" />
<polygon points="0,100 50,0 100,100" fill="#9c27b0" transform="translate(1000,1300)" /><rect x="1100" y="1300" width="100" height="100" fill="#343a40" />
<polygon points="0,0 100,50 0,100" fill="#9c27b0" transform="translate(1100,1300)" /><rect x="1200" y="1300" width="100" height="100" fill="#f8f9fa" />
<polygon points="0,50 100,0 100,100" fill="#7b1fa2" transform="translate(1200,1300)" /><rect x="1300" y="1300" width="100" height="100" fill="#adb5bd" />
<polygon points="100,0 100,100 0,100" fill="#9c27b0" transform="translate(1300,1300)" /><rect x="1400" y="1300" width="100" height="100" fill="#ced4da" />
<polygon points="0,0 100,50 0,100" fill="#6a1b9a" transform="translate(1400,1300)" /><rect x="0" y="1400" width="100" height="100" fill="#343a40" />
<polygon points="0,50 100,0 100,100" fill="#f3e5f5" transform="translate(0,1400)" /><rect x="100" y="1400" width="100" height="100" fill="#343a40" />
<polygon points="0,0 50,100 100,0" fill="#8e24aa" transform="translate(100,1400)" /><rect x="200" y="1400" width="100" height="100" fill="#343a40" />
<polygon points="0,100 50,0 100,100" fill="#7b1fa2" transform="translate(200,1400)" /><rect x="300" y="1400" width="100" height="100" fill="#6c757d" />
<polygon points="0,0 100,50 0,100" fill="#8e24aa" transform="translate(300,1400)" /><rect x="400" y="1400" width="100" height="100" fill="#dee2e6" />
<polygon points="0,0 50,100 100,0" fill="#9c27b0" transform="translate(400,1400)" /><rect x="500" y="1400" width="100" height="100" fill="#ced4da" />
<polygon points="0,0 100,0 100,100" fill="#4a148c" transform="translate(500,1400)" /><rect x="600" y="1400" width="100" height="100" fill="#6c757d" />
<polygon points="0,50 100,0 100,100" fill="#8e24aa" transform="translate(600,1400)" /><rect x="700" y="1400" width="100" height="100" fill="#adb5bd" />
<polygon points="0,100 50,0 100,100" fill="#8e24aa" transform="translate(700,1400)" /><rect x="800" y="1400" width="100" height="100" fill="#495057" />
<polygon points="0,0 100,0 0,100" fill="#f3e5f5" transform="translate(800,1400)" /><rect x="900" y="1400" width="100" height="100" fill="#adb5bd" />
<polygon points="0,0 100,50 0,100" fill="#7b1fa2" transform="translate(900,1400)" /><rect x="1000" y="1400" width="100" height="100" fill="#dee2e6" />
<polygon points="0,0 100,0 0,100" fill="#9c27b0" transform="translate(1000,1400)" /><rect x="1100" y="1400" width="100" height="100" fill="#212529" />
<polygon points="0,100 50,0 100,100" fill="#ab47bc" transform="translate(1100,1400)" /><rect x="1200" y="1400" width="100" height="100" fill="#212529" />
<polygon points="0,0 100,0 0,100" fill="#9c27b0" transform="translate(1200,1400)" /><rect x="1300" y="1400" width="100" height="100" fill="#495057" />
<polygon points="0,50 100,0 100,100" fill="#ab47bc" transform="translate(1300,1400)" /><rect x="1400" y="1400" width="100" height="100" fill="#ced4da" />
<polygon points="0,100 50,0 100,100" fill="#8e24aa" transform="translate(1400,1400)" /><text x="0" y="1620" style="font: bold 30px sans-serif;">Forground Palette (purple)</text>
<rect x="0" y="1650" width="100" height="100" fill="#f3e5f5"/><text x="20" y="1770" style="font: 12px sans-serif;">#f3e5f5</text>
<rect x="100" y="1650" width="100" height="100" fill="#e1bee7"/><text x="120" y="1770" style="font: 12px sans-serif;">#e1bee7</text>
<rect x="200" y="1650" width="100" height="100" fill="#ce93d8"/><text x="220" y="1770" style="font: 12px sans-serif;">#ce93d8</text>
<rect x="300" y="1650" width="100" height="100" fill="#ba68c8"/><text x="320" y="1770" style="font: 12px sans-serif;">#ba68c8</text>
<rect x="400" y="1650" width="100" height="100" fill="#ab47bc"/><text x="420" y="1770" style="font: 12px sans-serif;">#ab47bc</text>
<rect x="500" y="1650" width="100" height="100" fill="#9c27b0"/><text x="520" y="1770" style="font: 12px sans-serif;">#9c27b0</text>
<rect x="600" y="1650" width="100" height="100" fill="#8e24aa"/><text x="620" y="1770" style="font: 12px sans-serif;">#8e24aa</text>
<rect x="700" y="1650" width="100" height="100" fill="#7b1fa2"/><text x="720" y="1770" style="font: 12px sans-serif;">#7b1fa2</text>
<rect x="800" y="1650" width="100" height="100" fill="#6a1b9a"/><text x="820" y="1770" style="font: 12px sans-serif;">#6a1b9a</text>
<rect x="900" y="1650" width="100" height="100" fill="#4a148c"/><text x="920" y="1770" style="font: 12px sans-serif;">#4a148c</text>

<text x="0" y="1820" style="font: bold 30px sans-serif;">Background Palette (background_palette_4)</text>
<rect x="0" y="1850" width="100" height="100" fill="#f8f9fa"/><text x="20" y="1970" style="font: 12px sans-serif;">#f8f9fa</text>
<rect x="100" y="1850" width="100" height="100" fill="#e9ecef"/><text x="120" y="1970" style="font: 12px sans-serif;">#e9ecef</text>
<rect x="200" y="1850" width="100" height="100" fill="#dee2e6"/><text x="220" y="1970" style="font: 12px sans-serif;">#dee2e6</text>
<rect x="300" y="1850" width="100" height="100" fill="#ced4da"/><text x="320" y="1970" style="font: 12px sans-serif;">#ced4da</text>
<rect x="400" y="1850" width="100" height="100" fill="#adb5bd"/><text x="420" y="1970" style="font: 12px sans-serif;">#adb5bd</text>
<rect x="500" y="1850" width="100" height="100" fill="#6c757d"/><text x="520" y="1970" style="font: 12px sans-serif;">#6c757d</text>
<rect x="600" y="1850" width="100" height="100" fill="#495057"/><text x="620" y="1970" style="font: 12px sans-serif;">#495057</text>
<rect x="700" y="1850" width="100" height="100" fill="#343a40"/><text x="720" y="1970" style="font: 12px sans-serif;">#343a40</text>
<rect x="800" y="1850" width="100" height="100" fill="#212529"/><text x="820" y="1970" style="font: 12px sans-serif;">#212529</text>
</svg>